<svg xmlns="http://www.w3.org/2000/svg" xmlns:xlink="http://www.w3.org/1999/xlink" width="1000" zoomAndPan="magnify" viewBox="0 0 750 749.999995" height="1000" preserveAspectRatio="xMidYMid meet" version="1.0"><defs><g/><clipPath id="e53a0c9587"><path d="M 157.628906 111 L 592.628906 111 L 592.628906 460 L 157.628906 460 Z M 157.628906 111 " clip-rule="nonzero"/></clipPath><clipPath id="1e521425b1"><path d="M 170 23.796875 L 520 23.796875 L 520 311 L 170 311 Z M 170 23.796875 " clip-rule="nonzero"/></clipPath></defs><g clip-path="url(#e53a0c9587)"><path fill="#209d5c" d="M 484.535156 226.578125 C 484.535156 208.285156 502.25 193.453125 524.113281 193.453125 C 545.972656 193.453125 563.6875 208.289062 563.6875 226.578125 C 563.6875 244.871094 545.972656 259.703125 524.113281 259.703125 C 502.25 259.703125 484.535156 244.871094 484.535156 226.578125 Z M 540.03125 273.125 C 445.949219 363.460938 505.476562 276.121094 434.96875 111.054688 C 485.742188 500.828125 133.269531 501.902344 169.144531 288.546875 C 86.882812 528.5625 470.308594 527.746094 592.308594 214.925781 C 569.066406 237.660156 554.605469 259.125 540.03125 273.125 Z M 540.03125 273.125 " fill-opacity="1" fill-rule="evenodd"/></g><path fill="#06327d" d="M 225.800781 329.339844 L 185.796875 329.339844 C 187.074219 345.09375 191.214844 360.636719 199.515625 374.582031 C 205.917969 385.347656 214.726562 394.851562 225.800781 401.96875 L 225.800781 329.335938 Z M 225.800781 329.339844 " fill-opacity="1" fill-rule="evenodd"/><path fill="#06327d" d="M 237.527344 269.625 L 237.527344 408.207031 C 241.292969 409.835938 245.261719 411.214844 249.433594 412.316406 C 262.578125 415.796875 276.15625 416.101562 289.320312 413.90625 L 289.320312 269.621094 L 237.527344 269.621094 Z M 237.527344 269.625 " fill-opacity="1" fill-rule="evenodd"/><path fill="#06327d" d="M 301.046875 217.277344 L 301.046875 411.261719 C 303.683594 410.515625 306.296875 409.675781 308.863281 408.738281 C 325.726562 402.605469 340.425781 392.894531 352.84375 381.488281 L 352.84375 217.28125 L 301.046875 217.28125 Z M 301.046875 217.277344 " fill-opacity="1" fill-rule="evenodd"/><path fill="#06327d" d="M 364.566406 142.839844 L 364.566406 369.507812 C 366.402344 367.433594 368.167969 365.332031 369.867188 363.199219 C 395.714844 330.84375 409.792969 290.636719 416.363281 248.933594 L 416.363281 142.839844 Z M 364.566406 142.839844 " fill-opacity="1" fill-rule="evenodd"/><g clip-path="url(#1e521425b1)"><path fill="#000000" d="M 181.761719 308.023438 C 179.335938 310.617188 175.269531 310.75 172.679688 308.328125 C 170.089844 305.902344 169.953125 301.839844 172.375 299.246094 L 219.1875 249.210938 C 220.453125 247.855469 222.164062 247.175781 223.875 247.175781 L 223.875 247.140625 L 267.457031 247.140625 L 267.457031 200.332031 C 267.457031 196.765625 270.351562 193.875 273.914062 193.875 L 336.058594 193.875 L 336.058594 125.675781 C 336.058594 122.109375 338.949219 119.21875 342.515625 119.21875 L 401.390625 119.21875 L 474.53125 53.390625 L 461.164062 39.566406 L 461.167969 39.5625 C 460.382812 38.75 459.84375 37.6875 459.6875 36.484375 C 459.296875 33.496094 461.40625 30.753906 464.394531 30.367188 L 512.535156 23.925781 C 513.21875 23.773438 513.945312 23.753906 514.675781 23.882812 C 517.652344 24.414062 519.636719 27.261719 519.105469 30.238281 L 510.546875 78.167969 L 510.53125 78.164062 C 510.335938 79.261719 509.804688 80.308594 508.941406 81.140625 C 506.765625 83.234375 503.308594 83.164062 501.214844 80.992188 L 483.5 62.667969 L 408.425781 130.230469 C 407.257812 131.40625 405.640625 132.132812 403.851562 132.132812 L 348.972656 132.132812 L 348.972656 200.332031 C 348.972656 203.898438 346.078125 206.789062 342.515625 206.789062 L 280.371094 206.789062 L 280.371094 253.597656 C 280.371094 257.164062 277.480469 260.054688 273.914062 260.054688 L 226.628906 260.054688 L 181.753906 308.027344 Z M 181.761719 308.023438 " fill-opacity="1" fill-rule="nonzero"/></g><g fill="#000000" fill-opacity="1"><g transform="translate(124.953243, 615.872271)"><g><path d="M 28.15625 -34.257812 C 37.574219 -32.007812 44 -29.546875 47.425781 -26.761719 C 49.78125 -24.835938 50.957031 -22.375 50.957031 -19.375 C 50.957031 -16.378906 50.316406 -13.917969 49.03125 -12.203125 C 45.820312 -7.707031 40.039062 -5.460938 31.902344 -5.460938 C 20.554688 -5.460938 14.132812 -9.3125 12.738281 -17.019531 L 3.960938 -17.019531 C 6.53125 -4.710938 15.84375 1.390625 31.902344 1.390625 C 39.074219 1.390625 45.070312 -0.105469 49.886719 -3.320312 C 55.667969 -7.066406 58.664062 -12.632812 58.664062 -19.910156 C 58.664062 -25.90625 56.308594 -30.511719 51.597656 -33.722656 C 48.28125 -36.078125 42.929688 -38.21875 35.542969 -40.144531 C 28.046875 -42.070312 23.230469 -43.675781 20.980469 -44.855469 C 16.058594 -47.316406 13.59375 -50.742188 13.703125 -55.238281 C 13.703125 -57.59375 14.132812 -59.628906 15.203125 -61.128906 C 17.984375 -65.300781 22.910156 -67.441406 29.976562 -67.441406 C 39.929688 -67.441406 45.605469 -64.230469 47.101562 -58.023438 L 55.238281 -58.023438 C 52.5625 -68.511719 44.105469 -73.867188 29.976562 -73.867188 C 23.550781 -73.867188 17.878906 -72.152344 13.167969 -68.726562 C 8.351562 -65.300781 5.886719 -60.269531 5.886719 -53.417969 C 5.886719 -44.105469 13.382812 -37.683594 28.15625 -34.257812 Z M 28.15625 -34.257812 "/></g></g></g><g fill="#000000" fill-opacity="1"><g transform="translate(186.386892, 615.872271)"><g><path d="M 19.804688 -26.761719 L 33.078125 -60.269531 L 46.246094 -26.761719 Z M 64.980469 0 L 33.078125 -77.828125 L 1.070312 0 L 9.207031 0 L 17.019531 -19.804688 L 49.03125 -19.804688 L 56.84375 0 Z M 64.980469 0 "/></g></g></g><g fill="#000000" fill-opacity="1"><g transform="translate(252.422714, 615.872271)"><g><path d="M 15.523438 -7.492188 L 15.523438 -72.796875 L 8.027344 -72.796875 L 8.027344 0 L 41.535156 0 L 41.535156 -7.492188 Z M 15.523438 -7.492188 "/></g></g></g><g fill="#000000" fill-opacity="1"><g transform="translate(296.089852, 615.872271)"><g><path d="M 51.277344 0 L 51.277344 -6.957031 L 15.523438 -6.957031 L 15.523438 -32.863281 L 50.207031 -32.863281 L 50.207031 -39.929688 L 15.523438 -39.929688 L 15.523438 -65.835938 L 51.277344 -65.835938 L 51.277344 -72.796875 L 8.027344 -72.796875 L 8.027344 0 Z M 51.277344 0 "/></g></g></g><g fill="#000000" fill-opacity="1"><g transform="translate(355.382961, 615.872271)"><g><path d="M 28.15625 -34.257812 C 37.574219 -32.007812 44 -29.546875 47.425781 -26.761719 C 49.78125 -24.835938 50.957031 -22.375 50.957031 -19.375 C 50.957031 -16.378906 50.316406 -13.917969 49.03125 -12.203125 C 45.820312 -7.707031 40.039062 -5.460938 31.902344 -5.460938 C 20.554688 -5.460938 14.132812 -9.3125 12.738281 -17.019531 L 3.960938 -17.019531 C 6.53125 -4.710938 15.84375 1.390625 31.902344 1.390625 C 39.074219 1.390625 45.070312 -0.105469 49.886719 -3.320312 C 55.667969 -7.066406 58.664062 -12.632812 58.664062 -19.910156 C 58.664062 -25.90625 56.308594 -30.511719 51.597656 -33.722656 C 48.28125 -36.078125 42.929688 -38.21875 35.542969 -40.144531 C 28.046875 -42.070312 23.230469 -43.675781 20.980469 -44.855469 C 16.058594 -47.316406 13.59375 -50.742188 13.703125 -55.238281 C 13.703125 -57.59375 14.132812 -59.628906 15.203125 -61.128906 C 17.984375 -65.300781 22.910156 -67.441406 29.976562 -67.441406 C 39.929688 -67.441406 45.605469 -64.230469 47.101562 -58.023438 L 55.238281 -58.023438 C 52.5625 -68.511719 44.105469 -73.867188 29.976562 -73.867188 C 23.550781 -73.867188 17.878906 -72.152344 13.167969 -68.726562 C 8.351562 -65.300781 5.886719 -60.269531 5.886719 -53.417969 C 5.886719 -44.105469 13.382812 -37.683594 28.15625 -34.257812 Z M 28.15625 -34.257812 "/></g></g></g><g fill="#000000" fill-opacity="1"><g transform="translate(416.81661, 615.872271)"><g/></g></g><g fill="#000000" fill-opacity="1"><g transform="translate(445.713986, 615.872271)"><g><path d="M 19.804688 -26.761719 L 33.078125 -60.269531 L 46.246094 -26.761719 Z M 64.980469 0 L 33.078125 -77.828125 L 1.070312 0 L 9.207031 0 L 17.019531 -19.804688 L 49.03125 -19.804688 L 56.84375 0 Z M 64.980469 0 "/></g></g></g><g fill="#000000" fill-opacity="1"><g transform="translate(511.749808, 615.872271)"><g><path d="M 15.523438 -36.078125 L 15.523438 -65.625 L 32.4375 -65.625 C 36.824219 -65.625 40.359375 -64.230469 43.035156 -61.554688 C 45.605469 -58.773438 46.996094 -55.347656 46.996094 -51.0625 C 46.996094 -46.675781 45.605469 -43.140625 42.820312 -40.25 C 40.039062 -37.46875 36.613281 -36.078125 32.4375 -36.078125 Z M 54.488281 -50.851562 C 54.488281 -57.273438 52.132812 -62.519531 47.636719 -66.695312 C 43.140625 -70.761719 37.789062 -72.796875 31.367188 -72.796875 L 8.027344 -72.796875 L 8.027344 0 L 15.523438 0 L 15.523438 -28.796875 L 31.367188 -28.796875 C 37.789062 -28.796875 43.25 -30.832031 47.636719 -34.898438 C 52.132812 -39.179688 54.488281 -44.425781 54.488281 -50.851562 Z M 54.488281 -50.851562 "/></g></g></g><g fill="#000000" fill-opacity="1"><g transform="translate(568.367221, 615.872271)"><g><path d="M 15.523438 -36.078125 L 15.523438 -65.625 L 32.4375 -65.625 C 36.824219 -65.625 40.359375 -64.230469 43.035156 -61.554688 C 45.605469 -58.773438 46.996094 -55.347656 46.996094 -51.0625 C 46.996094 -46.675781 45.605469 -43.140625 42.820312 -40.25 C 40.039062 -37.46875 36.613281 -36.078125 32.4375 -36.078125 Z M 54.488281 -50.851562 C 54.488281 -57.273438 52.132812 -62.519531 47.636719 -66.695312 C 43.140625 -70.761719 37.789062 -72.796875 31.367188 -72.796875 L 8.027344 -72.796875 L 8.027344 0 L 15.523438 0 L 15.523438 -28.796875 L 31.367188 -28.796875 C 37.789062 -28.796875 43.25 -30.832031 47.636719 -34.898438 C 52.132812 -39.179688 54.488281 -44.425781 54.488281 -50.851562 Z M 54.488281 -50.851562 "/></g></g></g><g fill="#000000" fill-opacity="1"><g transform="translate(269.000216, 711.171884)"><g><path d="M 4.953125 0 L 8.671875 0 L 8.671875 -14.980469 L 24.070312 -14.980469 L 24.070312 -18.089844 L 8.671875 -18.089844 L 8.671875 -29.820312 L 26.128906 -29.820312 L 26.128906 -33.023438 L 4.953125 -33.023438 Z M 4.953125 0 "/></g></g></g><g fill="#000000" fill-opacity="1"><g transform="translate(305.174482, 711.171884)"><g><path d="M 3.714844 -28.535156 L 7.6875 -28.535156 L 7.6875 -33.023438 L 3.714844 -33.023438 Z M 3.972656 0 L 7.433594 0 L 7.433594 -23.347656 L 3.972656 -23.347656 Z M 3.972656 0 "/></g></g></g><g fill="#000000" fill-opacity="1"><g transform="translate(324.809158, 711.171884)"><g><path d="M 3.925781 0 L 7.410156 0 L 7.410156 -12.128906 C 7.410156 -17.925781 10.328125 -20.800781 14 -20.800781 C 18.113281 -20.800781 19.304688 -17.058594 19.304688 -13.835938 L 19.304688 0 L 22.761719 0 L 22.761719 -14.1875 C 22.761719 -19.328125 20.496094 -23.765625 14.933594 -23.765625 C 11.542969 -23.765625 8.949219 -22.015625 7.410156 -19.28125 L 7.410156 -23.347656 L 3.925781 -23.347656 Z M 3.925781 0 "/></g></g></g><g fill="#000000" fill-opacity="1"><g transform="translate(359.184627, 711.171884)"><g><path d="M 9.371094 0.46875 C 12.691406 0.46875 15.867188 -1.003906 17.574219 -4.511719 L 17.644531 0 L 20.613281 0 L 20.613281 -14.324219 C 20.613281 -20.003906 17.410156 -23.835938 11.476562 -23.835938 C 7.617188 -23.835938 4.765625 -22.15625 2.664062 -19.257812 L 5.210938 -17.269531 C 6.332031 -18.882812 8.34375 -20.800781 11.683594 -20.800781 C 15.914062 -20.800781 17.410156 -17.738281 17.410156 -13.34375 L 12.082031 -13.34375 C 5.445312 -13.34375 1.800781 -11.171875 1.800781 -6.496094 C 1.800781 -2.101562 4.976562 0.46875 9.371094 0.46875 Z M 9.769531 -2.476562 C 7.339844 -2.476562 5.398438 -3.621094 5.398438 -6.402344 C 5.398438 -9.511719 7.78125 -10.703125 12.410156 -10.703125 L 17.410156 -10.703125 C 17.410156 -6.941406 14.558594 -2.476562 9.769531 -2.476562 Z M 9.769531 -2.476562 "/></g></g></g><g fill="#000000" fill-opacity="1"><g transform="translate(391.364162, 711.171884)"><g><path d="M 3.925781 0 L 7.410156 0 L 7.410156 -12.128906 C 7.410156 -17.925781 10.328125 -20.800781 14 -20.800781 C 18.113281 -20.800781 19.304688 -17.058594 19.304688 -13.835938 L 19.304688 0 L 22.761719 0 L 22.761719 -14.1875 C 22.761719 -19.328125 20.496094 -23.765625 14.933594 -23.765625 C 11.542969 -23.765625 8.949219 -22.015625 7.410156 -19.28125 L 7.410156 -23.347656 L 3.925781 -23.347656 Z M 3.925781 0 "/></g></g></g><g fill="#000000" fill-opacity="1"><g transform="translate(425.73963, 711.171884)"><g><path d="M 12.292969 0.46875 C 16.523438 0.46875 19.699219 -1.847656 21.078125 -5.726562 L 18.042969 -7.035156 C 17.339844 -4.277344 15.074219 -2.476562 12.246094 -2.476562 C 7.363281 -2.476562 5.726562 -7.363281 5.726562 -11.636719 C 5.726562 -15.84375 7.410156 -20.894531 12.246094 -20.894531 C 15.050781 -20.894531 17.339844 -19.046875 18.042969 -16.21875 L 21.335938 -17.621094 C 19.699219 -21.476562 16.476562 -23.835938 12.246094 -23.835938 C 5.515625 -23.835938 2.148438 -17.902344 2.148438 -11.636719 C 2.148438 -5.304688 5.5625 0.46875 12.292969 0.46875 Z M 12.292969 0.46875 "/></g></g></g><g fill="#000000" fill-opacity="1"><g transform="translate(456.727754, 711.171884)"><g><path d="M 12.644531 0.328125 C 16.382812 0.328125 19.046875 -0.746094 21.570312 -3.320312 L 19.1875 -5.234375 C 17.363281 -3.296875 15.308594 -2.734375 12.621094 -2.734375 C 8.0625 -2.734375 5.773438 -6.332031 5.796875 -10.492188 L 22.0625 -10.492188 C 22.109375 -10.914062 22.179688 -11.683594 22.179688 -12.292969 C 22.179688 -17.667969 19.839844 -23.675781 12.269531 -23.675781 C 5.492188 -23.675781 2.125 -17.808594 2.125 -11.542969 C 2.125 -5.1875 5.539062 0.328125 12.644531 0.328125 Z M 5.796875 -13.34375 C 5.984375 -17.316406 7.992188 -20.800781 12.269531 -20.800781 C 17.058594 -20.800781 18.742188 -17.082031 18.835938 -13.34375 Z M 5.796875 -13.34375 "/></g></g></g></svg>