<svg xmlns="http://www.w3.org/2000/svg" xmlns:xlink="http://www.w3.org/1999/xlink" width="200" zoomAndPan="magnify" viewBox="0 0 150 149.999998" height="200" preserveAspectRatio="xMidYMid meet" version="1.0"><defs><filter x="0%" y="0%" width="100%" height="100%" id="8bf32644cc"><feColorMatrix values="0 0 0 0 1 0 0 0 0 1 0 0 0 0 1 0 0 0 1 0" color-interpolation-filters="sRGB"/></filter><mask id="74f0943ea0"><g filter="url(#8bf32644cc)"><rect x="-15" width="180" fill="#000000" y="-15" height="179.999997" fill-opacity="0.01"/></g></mask><clipPath id="e430d3a668"><path d="M 1 0.191406 L 2.640625 0.191406 L 2.640625 2.199219 L 1 2.199219 Z M 1 0.191406 " clip-rule="nonzero"/></clipPath><clipPath id="36af0ca5c0"><path d="M 0.625 0.191406 L 2 0.191406 L 2 2 L 0.625 2 Z M 0.625 0.191406 " clip-rule="nonzero"/></clipPath><clipPath id="22a5dfd88d"><rect x="0" width="3" y="0" height="3"/></clipPath><clipPath id="2e8663cdfa"><path d="M 8.199219 68 L 31 68 L 31 80 L 8.199219 80 Z M 8.199219 68 " clip-rule="nonzero"/></clipPath><clipPath id="831a0997e9"><path d="M 38.480469 44.203125 L 84.195312 44.203125 L 84.195312 140.449219 L 38.480469 140.449219 Z M 38.480469 44.203125 " clip-rule="nonzero"/></clipPath><clipPath id="e683228b54"><path d="M 84.488281 17.125 L 141.699219 17.125 L 141.699219 103.605469 L 84.488281 103.605469 Z M 84.488281 17.125 " clip-rule="nonzero"/></clipPath><clipPath id="ab86be4964"><path d="M 79.246094 9.261719 L 141.699219 9.261719 L 141.699219 22 L 79.246094 22 Z M 79.246094 9.261719 " clip-rule="nonzero"/></clipPath></defs><g mask="url(#74f0943ea0)"><g transform="matrix(1, 0, 0, 1, 114, 65)"><g clip-path="url(#22a5dfd88d)"><g clip-path="url(#e430d3a668)"><path fill="#d0def2" d="M 2.464844 1.226562 C 2.394531 1.179688 2.238281 1.050781 2.089844 0.976562 C 1.941406 0.898438 1.753906 0.863281 1.667969 0.832031 C 1.605469 0.8125 1.605469 0.875 1.574219 0.917969 C 1.195312 1.691406 1.527344 1.953125 1.589844 1.988281 C 1.652344 2.015625 2.070312 2.113281 2.449219 1.347656 C 2.476562 1.3125 2.519531 1.261719 2.464844 1.226562 Z M 1.667969 1.792969 C 1.519531 1.722656 1.539062 1.46875 1.539062 1.46875 C 1.539062 1.46875 1.617188 1.621094 1.722656 1.671875 C 1.828125 1.722656 2 1.6875 2 1.6875 C 2 1.6875 1.824219 1.863281 1.667969 1.792969 Z M 2.039062 1.515625 C 1.964844 1.480469 1.933594 1.398438 1.933594 1.398438 C 1.933594 1.398438 2.027344 1.367188 2.097656 1.402344 C 2.175781 1.4375 2.203125 1.53125 2.203125 1.53125 C 2.203125 1.53125 2.109375 1.558594 2.039062 1.515625 Z M 1.679688 1.339844 C 1.609375 1.304688 1.574219 1.222656 1.574219 1.222656 C 1.574219 1.222656 1.660156 1.191406 1.738281 1.226562 C 1.808594 1.261719 1.84375 1.347656 1.84375 1.347656 C 1.84375 1.347656 1.757812 1.382812 1.679688 1.339844 Z M 1.679688 1.339844 " fill-opacity="1" fill-rule="nonzero"/></g><g clip-path="url(#36af0ca5c0)"><path fill="#d0def2" d="M 1.398438 1.058594 C 1.386719 1.058594 1.378906 1.066406 1.363281 1.066406 C 1.257812 1.101562 1.160156 1.234375 1.160156 1.234375 C 1.160156 1.234375 1.175781 1.015625 1.328125 0.960938 C 1.363281 0.945312 1.40625 0.945312 1.441406 0.953125 C 1.457031 0.925781 1.46875 0.898438 1.484375 0.867188 C 1.484375 0.863281 1.492188 0.863281 1.492188 0.855469 C 1.503906 0.8125 1.539062 0.722656 1.644531 0.722656 C 1.660156 0.722656 1.679688 0.722656 1.695312 0.726562 C 1.710938 0.742188 1.722656 0.742188 1.738281 0.757812 C 1.730469 0.628906 1.703125 0.480469 1.640625 0.300781 C 1.625 0.257812 1.625 0.191406 1.5625 0.199219 C 1.476562 0.214844 1.257812 0.234375 1.097656 0.285156 C 0.933594 0.347656 0.789062 0.453125 0.710938 0.496094 C 0.652344 0.523438 0.6875 0.574219 0.710938 0.621094 C 0.894531 1.164062 1.148438 1.328125 1.316406 1.367188 C 1.328125 1.277344 1.359375 1.171875 1.398438 1.058594 Z M 1.46875 0.574219 C 1.554688 0.574219 1.617188 0.636719 1.617188 0.636719 C 1.617188 0.636719 1.554688 0.707031 1.46875 0.707031 C 1.386719 0.707031 1.324219 0.644531 1.324219 0.644531 C 1.324219 0.644531 1.394531 0.582031 1.46875 0.574219 Z M 1.117188 0.855469 C 1.054688 0.902344 0.957031 0.890625 0.957031 0.890625 C 0.957031 0.890625 0.96875 0.792969 1.035156 0.742188 C 1.097656 0.691406 1.195312 0.707031 1.195312 0.707031 C 1.195312 0.707031 1.183594 0.804688 1.117188 0.855469 Z M 1.117188 0.855469 " fill-opacity="1" fill-rule="nonzero"/></g></g></g></g><path fill="#d0def2" d="M 9.824219 89.003906 C 9.824219 89.003906 20.933594 80.777344 32.289062 82.515625 C 32.289062 82.515625 20.21875 68.386719 9.824219 89.003906 " fill-opacity="1" fill-rule="nonzero"/><g clip-path="url(#2e8663cdfa)"><path fill="#d0def2" d="M 8.199219 79.320312 C 8.199219 79.320312 16.222656 66.710938 30.964844 73.761719 C 30.964844 73.761719 15.886719 59.109375 8.199219 79.320312 " fill-opacity="1" fill-rule="nonzero"/></g><g clip-path="url(#831a0997e9)"><path fill="#d0def2" d="M 51.019531 70.730469 C 51.019531 70.730469 61.089844 52.273438 74.410156 69.308594 C 74.410156 69.308594 63.015625 59.636719 51.019531 70.730469 Z M 52.34375 79.484375 C 52.34375 79.484375 59.691406 62.417969 75.71875 79.042969 C 75.71875 79.042969 60.769531 74.070312 52.34375 79.484375 Z M 51.253906 102.441406 L 44.222656 100.082031 C 53.875 97.160156 51.253906 102.441406 51.253906 102.441406 Z M 80.4375 44.410156 C 62.210938 51.609375 54.84375 53.359375 42.214844 53.996094 L 38.710938 74.382812 L 43.792969 77.84375 L 38.738281 100.425781 L 46.710938 103.613281 L 46.433594 111.472656 C 46.433594 111.472656 62.902344 112.726562 72.199219 99.925781 C 72.199219 99.925781 66.730469 118.660156 48.171875 120.8125 L 52.65625 128.925781 L 50.5625 140.738281 C 61.601562 139.078125 74.109375 129.726562 80.5625 108.917969 C 88.769531 82.441406 80.4375 44.410156 80.4375 44.410156 " fill-opacity="1" fill-rule="nonzero"/></g><path fill="#d0def2" d="M 65.398438 41.15625 C 65.398438 41.15625 77.628906 36.1875 87.257812 40.015625 C 87.257812 40.015625 82.960938 21.125 65.398438 41.15625 " fill-opacity="1" fill-rule="nonzero"/><path fill="#d0def2" d="M 65.140625 34.238281 C 65.140625 34.238281 72.980469 25.214844 86.554688 27.464844 L 86.765625 23.679688 C 86.765625 23.679688 72.554688 21.921875 65.140625 34.238281 " fill-opacity="1" fill-rule="nonzero"/><g clip-path="url(#e683228b54)"><path fill="#d0def2" d="M 112.621094 32.90625 L 113.773438 29.296875 C 113.773438 29.296875 127.675781 32.726562 130.207031 46.875 C 130.207031 46.875 126.101562 35.648438 112.621094 32.90625 Z M 107.480469 44.382812 C 107.480469 44.382812 118.234375 28.269531 127.496094 53.246094 C 127.496094 53.246094 117.84375 44.238281 107.480469 44.382812 Z M 96.601562 65.171875 L 90.34375 59.5625 C 100.335938 61.648438 96.601562 65.171875 96.601562 65.171875 Z M 141.796875 17.203125 C 131.417969 20.070312 117.523438 20.007812 103.808594 18.066406 L 95.257812 36.910156 L 97.414062 43.097656 L 84.929688 58.722656 L 90.976562 64.796875 L 87.710938 71.925781 C 87.710938 71.925781 104.1875 70.425781 110.078125 88.289062 C 110.078125 88.289062 100.214844 78.132812 88.324219 80.714844 L 91.917969 88.820312 L 84.710938 102.464844 C 96.1875 105.980469 113.261719 101.195312 126.25 79.808594 C 140.640625 56.121094 141.796875 17.203125 141.796875 17.203125 " fill-opacity="1" fill-rule="nonzero"/></g><path fill="#d0def2" d="M 80.4375 44.410156 C 80.4375 44.410156 54.128906 56.597656 11.78125 54.5 C 11.78125 54.5 33.582031 58.34375 54.757812 55.199219 L 79.496094 46.953125 L 80.4375 44.410156 " fill-opacity="1" fill-rule="nonzero"/><g clip-path="url(#ab86be4964)"><path fill="#d0def2" d="M 141.796875 17.203125 C 141.796875 17.203125 109.292969 23.839844 79.28125 9.261719 C 79.28125 9.261719 93.082031 19.5 113.769531 21.792969 L 139.269531 21.425781 L 141.796875 17.203125 " fill-opacity="1" fill-rule="nonzero"/></g></svg>