<svg xmlns="http://www.w3.org/2000/svg" xmlns:xlink="http://www.w3.org/1999/xlink" width="200" zoomAndPan="magnify" viewBox="0 0 150 149.999998" height="200" preserveAspectRatio="xMidYMid meet" version="1.0"><defs><filter x="0%" y="0%" width="100%" height="100%" id="4b962278ff"><feColorMatrix values="0 0 0 0 1 0 0 0 0 1 0 0 0 0 1 0 0 0 1 0" color-interpolation-filters="sRGB"/></filter><mask id="8f823cec1a"><g filter="url(#4b962278ff)"><rect x="-15" width="180" fill="#000000" y="-15" height="179.999997" fill-opacity="0.01"/></g></mask><clipPath id="f3f47b3f79"><path d="M 1 0.191406 L 2.640625 0.191406 L 2.640625 2.199219 L 1 2.199219 Z M 1 0.191406 " clip-rule="nonzero"/></clipPath><clipPath id="6889e37b00"><path d="M 0.625 0.191406 L 2 0.191406 L 2 2 L 0.625 2 Z M 0.625 0.191406 " clip-rule="nonzero"/></clipPath><clipPath id="d536248487"><rect x="0" width="3" y="0" height="3"/></clipPath><clipPath id="68388a65ff"><path d="M 8.199219 48 L 30 48 L 30 70 L 8.199219 70 Z M 8.199219 48 " clip-rule="nonzero"/></clipPath><clipPath id="13a9113fac"><path d="M 13 59 L 141.699219 59 L 141.699219 141.699219 L 13 141.699219 Z M 13 59 " clip-rule="nonzero"/></clipPath><clipPath id="3040357d5f"><path d="M 9 8.199219 L 137 8.199219 L 137 62 L 9 62 Z M 9 8.199219 " clip-rule="nonzero"/></clipPath></defs><g mask="url(#8f823cec1a)"><g transform="matrix(1, 0, 0, 1, 114, 65)"><g clip-path="url(#d536248487)"><g clip-path="url(#f3f47b3f79)"><path fill="#d0def2" d="M 2.464844 1.226562 C 2.394531 1.179688 2.238281 1.050781 2.089844 0.976562 C 1.941406 0.898438 1.753906 0.863281 1.667969 0.832031 C 1.605469 0.8125 1.605469 0.875 1.574219 0.917969 C 1.195312 1.691406 1.527344 1.953125 1.589844 1.988281 C 1.652344 2.015625 2.070312 2.113281 2.449219 1.347656 C 2.476562 1.3125 2.519531 1.261719 2.464844 1.226562 Z M 1.667969 1.792969 C 1.519531 1.722656 1.539062 1.46875 1.539062 1.46875 C 1.539062 1.46875 1.617188 1.621094 1.722656 1.671875 C 1.828125 1.722656 2 1.6875 2 1.6875 C 2 1.6875 1.824219 1.863281 1.667969 1.792969 Z M 2.039062 1.515625 C 1.964844 1.480469 1.933594 1.398438 1.933594 1.398438 C 1.933594 1.398438 2.027344 1.367188 2.097656 1.402344 C 2.175781 1.4375 2.203125 1.53125 2.203125 1.53125 C 2.203125 1.53125 2.109375 1.558594 2.039062 1.515625 Z M 1.679688 1.339844 C 1.609375 1.304688 1.574219 1.222656 1.574219 1.222656 C 1.574219 1.222656 1.660156 1.191406 1.738281 1.226562 C 1.808594 1.261719 1.84375 1.347656 1.84375 1.347656 C 1.84375 1.347656 1.757812 1.382812 1.679688 1.339844 Z M 1.679688 1.339844 " fill-opacity="1" fill-rule="nonzero"/></g><g clip-path="url(#6889e37b00)"><path fill="#d0def2" d="M 1.398438 1.058594 C 1.386719 1.058594 1.378906 1.066406 1.363281 1.066406 C 1.257812 1.101562 1.160156 1.234375 1.160156 1.234375 C 1.160156 1.234375 1.175781 1.015625 1.328125 0.960938 C 1.363281 0.945312 1.40625 0.945312 1.441406 0.953125 C 1.457031 0.925781 1.46875 0.898438 1.484375 0.867188 C 1.484375 0.863281 1.492188 0.863281 1.492188 0.855469 C 1.503906 0.8125 1.539062 0.722656 1.644531 0.722656 C 1.660156 0.722656 1.679688 0.722656 1.695312 0.726562 C 1.710938 0.742188 1.722656 0.742188 1.738281 0.757812 C 1.730469 0.628906 1.703125 0.480469 1.640625 0.300781 C 1.625 0.257812 1.625 0.191406 1.5625 0.199219 C 1.476562 0.214844 1.257812 0.234375 1.097656 0.285156 C 0.933594 0.347656 0.789062 0.453125 0.710938 0.496094 C 0.652344 0.523438 0.6875 0.574219 0.710938 0.621094 C 0.894531 1.164062 1.148438 1.328125 1.316406 1.367188 C 1.328125 1.277344 1.359375 1.171875 1.398438 1.058594 Z M 1.46875 0.574219 C 1.554688 0.574219 1.617188 0.636719 1.617188 0.636719 C 1.617188 0.636719 1.554688 0.707031 1.46875 0.707031 C 1.386719 0.707031 1.324219 0.644531 1.324219 0.644531 C 1.324219 0.644531 1.394531 0.582031 1.46875 0.574219 Z M 1.117188 0.855469 C 1.054688 0.902344 0.957031 0.890625 0.957031 0.890625 C 0.957031 0.890625 0.96875 0.792969 1.035156 0.742188 C 1.097656 0.691406 1.195312 0.707031 1.195312 0.707031 C 1.195312 0.707031 1.183594 0.804688 1.117188 0.855469 Z M 1.117188 0.855469 " fill-opacity="1" fill-rule="nonzero"/></g></g></g></g><path fill="#d0def2" d="M 29.167969 60.710938 C 28.746094 60.710938 28.320312 60.609375 27.921875 60.398438 L 25.414062 59.066406 C 24.113281 58.378906 23.621094 56.769531 24.308594 55.46875 C 24.996094 54.171875 26.605469 53.671875 27.90625 54.367188 L 30.417969 55.695312 C 31.714844 56.386719 32.207031 57.996094 31.519531 59.292969 C 31.042969 60.195312 30.117188 60.710938 29.167969 60.710938 Z M 29.167969 60.710938 " fill-opacity="1" fill-rule="nonzero"/><path fill="#d0def2" d="M 17 54.261719 C 16.578125 54.261719 16.152344 54.164062 15.757812 53.949219 L 11.289062 51.582031 C 9.988281 50.894531 9.496094 49.28125 10.183594 47.984375 C 10.871094 46.683594 12.476562 46.183594 13.78125 46.878906 L 18.25 49.246094 C 19.546875 49.933594 20.042969 51.546875 19.355469 52.847656 C 18.875 53.746094 17.953125 54.261719 17 54.261719 Z M 17 54.261719 " fill-opacity="1" fill-rule="nonzero"/><g clip-path="url(#68388a65ff)"><path fill="#d0def2" d="M 19.109375 69.9375 C 13.238281 69.9375 8.464844 65.164062 8.464844 59.292969 C 8.464844 53.421875 13.238281 48.648438 19.109375 48.648438 C 24.980469 48.648438 29.753906 53.421875 29.753906 59.292969 C 29.753906 65.164062 24.980469 69.9375 19.109375 69.9375 Z M 19.109375 53.972656 C 16.175781 53.972656 13.785156 56.359375 13.785156 59.292969 C 13.785156 62.230469 16.175781 64.617188 19.109375 64.617188 C 22.042969 64.617188 24.433594 62.230469 24.433594 59.292969 C 24.433594 56.359375 22.042969 53.972656 19.109375 53.972656 Z M 19.109375 53.972656 " fill-opacity="1" fill-rule="nonzero"/></g><g clip-path="url(#13a9113fac)"><path fill="#d0def2" d="M 138.863281 59.292969 L 26.628906 59.292969 C 25.160156 59.292969 23.964844 60.484375 23.964844 61.957031 C 23.964844 62.523438 24.183594 63.023438 24.488281 63.457031 L 19.109375 68.835938 L 19.109375 66.8125 C 19.109375 65.34375 17.917969 64.152344 16.449219 64.152344 C 14.980469 64.152344 13.785156 65.34375 13.785156 66.8125 L 13.785156 136.46875 C 13.785156 139.40625 16.175781 141.792969 19.109375 141.792969 L 136.203125 141.792969 C 139.140625 141.792969 141.527344 139.40625 141.527344 136.46875 L 141.527344 61.957031 C 141.527344 60.484375 140.335938 59.292969 138.863281 59.292969 Z M 94.726562 64.617188 L 108.488281 64.617188 L 97.84375 75.261719 L 84.082031 75.261719 Z M 62.789062 64.617188 L 76.554688 64.617188 L 65.910156 75.261719 L 52.144531 75.261719 Z M 30.855469 64.617188 L 44.621094 64.617188 L 33.976562 75.261719 L 20.210938 75.261719 Z M 136.203125 69.9375 L 130.882812 75.261719 L 116.015625 75.261719 L 126.660156 64.617188 L 136.203125 64.617188 Z M 136.203125 69.9375 " fill-opacity="1" fill-rule="nonzero"/></g><g clip-path="url(#3040357d5f)"><path fill="#d0def2" d="M 136.015625 25.234375 L 135.234375 22.699219 C 135.230469 22.6875 135.230469 22.679688 135.226562 22.667969 L 132.105469 12.507812 C 131.242188 9.703125 128.261719 8.121094 125.453125 8.984375 L 60.902344 28.8125 L 54.242188 30.859375 C 54.230469 30.863281 54.222656 30.863281 54.210938 30.867188 L 45.589844 33.515625 L 13.523438 43.367188 C 12.164062 43.78125 11.046875 44.707031 10.378906 45.964844 C 9.714844 47.21875 9.578125 48.660156 9.996094 50.015625 L 11.257812 54.113281 C 11.691406 55.519531 13.1875 56.308594 14.582031 55.878906 C 15.988281 55.445312 16.777344 53.957031 16.347656 52.550781 L 15.085938 48.453125 L 29.695312 44.011719 L 42.945312 51.035156 L 26.289062 56.148438 C 24.882812 56.578125 24.09375 58.070312 24.523438 59.476562 C 24.875 60.621094 25.929688 61.355469 27.070312 61.355469 C 27.328125 61.355469 27.589844 61.316406 27.851562 61.238281 L 134.253906 28.558594 C 134.925781 28.347656 135.492188 27.882812 135.824219 27.257812 C 136.152344 26.632812 136.222656 25.90625 136.015625 25.234375 Z M 90.496094 36.425781 L 77.195312 29.375 L 77.226562 29.367188 L 89.925781 25.59375 L 103.078125 32.566406 L 90.546875 36.414062 Z M 107.722656 20 L 107.953125 19.929688 L 121.363281 15.8125 L 128.753906 19.730469 L 130.140625 24.242188 L 121.214844 26.996094 L 121.027344 27.054688 Z M 59.96875 45.804688 L 46.667969 38.753906 L 46.6875 38.75 L 60.3125 34.894531 L 73.21875 41.734375 L 59.984375 45.800781 Z M 59.96875 45.804688 " fill-opacity="1" fill-rule="nonzero"/></g></svg>