<svg xmlns="http://www.w3.org/2000/svg" xmlns:xlink="http://www.w3.org/1999/xlink" width="200" zoomAndPan="magnify" viewBox="0 0 150 149.999998" height="200" preserveAspectRatio="xMidYMid meet" version="1.0"><defs><filter x="0%" y="0%" width="100%" height="100%" id="e835c2c994"><feColorMatrix values="0 0 0 0 1 0 0 0 0 1 0 0 0 0 1 0 0 0 1 0" color-interpolation-filters="sRGB"/></filter><mask id="1f32501533"><g filter="url(#e835c2c994)"><rect x="-15" width="180" fill="#000000" y="-15" height="179.999997" fill-opacity="0.01"/></g></mask><clipPath id="c7a8e9f567"><path d="M 1 0.191406 L 2.640625 0.191406 L 2.640625 2.199219 L 1 2.199219 Z M 1 0.191406 " clip-rule="nonzero"/></clipPath><clipPath id="bc719642e5"><path d="M 0.625 0.191406 L 2 0.191406 L 2 2 L 0.625 2 Z M 0.625 0.191406 " clip-rule="nonzero"/></clipPath><clipPath id="3bc0c8b1f3"><rect x="0" width="3" y="0" height="3"/></clipPath><clipPath id="60fdc5962b"><path d="M 6.53125 10 L 143.78125 10 L 143.78125 140.285156 L 6.53125 140.285156 Z M 6.53125 10 " clip-rule="nonzero"/></clipPath><clipPath id="2d7014ff26"><path d="M 6.53125 9.785156 L 143.78125 9.785156 L 143.78125 140 L 6.53125 140 Z M 6.53125 9.785156 " clip-rule="nonzero"/></clipPath></defs><g mask="url(#1f32501533)"><g transform="matrix(1, 0, 0, 1, 114, 65)"><g clip-path="url(#3bc0c8b1f3)"><g clip-path="url(#c7a8e9f567)"><path fill="#d0def2" d="M 2.464844 1.226562 C 2.394531 1.179688 2.238281 1.050781 2.089844 0.976562 C 1.941406 0.898438 1.753906 0.863281 1.667969 0.832031 C 1.605469 0.8125 1.605469 0.875 1.574219 0.917969 C 1.195312 1.691406 1.527344 1.953125 1.589844 1.988281 C 1.652344 2.015625 2.070312 2.113281 2.449219 1.347656 C 2.476562 1.3125 2.519531 1.261719 2.464844 1.226562 Z M 1.667969 1.792969 C 1.519531 1.722656 1.539062 1.46875 1.539062 1.46875 C 1.539062 1.46875 1.617188 1.621094 1.722656 1.671875 C 1.828125 1.722656 2 1.6875 2 1.6875 C 2 1.6875 1.824219 1.863281 1.667969 1.792969 Z M 2.039062 1.515625 C 1.964844 1.480469 1.933594 1.398438 1.933594 1.398438 C 1.933594 1.398438 2.027344 1.367188 2.097656 1.402344 C 2.175781 1.4375 2.203125 1.53125 2.203125 1.53125 C 2.203125 1.53125 2.109375 1.558594 2.039062 1.515625 Z M 1.679688 1.339844 C 1.609375 1.304688 1.574219 1.222656 1.574219 1.222656 C 1.574219 1.222656 1.660156 1.191406 1.738281 1.226562 C 1.808594 1.261719 1.84375 1.347656 1.84375 1.347656 C 1.84375 1.347656 1.757812 1.382812 1.679688 1.339844 Z M 1.679688 1.339844 " fill-opacity="1" fill-rule="nonzero"/></g><g clip-path="url(#bc719642e5)"><path fill="#d0def2" d="M 1.398438 1.058594 C 1.386719 1.058594 1.378906 1.066406 1.363281 1.066406 C 1.257812 1.101562 1.160156 1.234375 1.160156 1.234375 C 1.160156 1.234375 1.175781 1.015625 1.328125 0.960938 C 1.363281 0.945312 1.40625 0.945312 1.441406 0.953125 C 1.457031 0.925781 1.46875 0.898438 1.484375 0.867188 C 1.484375 0.863281 1.492188 0.863281 1.492188 0.855469 C 1.503906 0.8125 1.539062 0.722656 1.644531 0.722656 C 1.660156 0.722656 1.679688 0.722656 1.695312 0.726562 C 1.710938 0.742188 1.722656 0.742188 1.738281 0.757812 C 1.730469 0.628906 1.703125 0.480469 1.640625 0.300781 C 1.625 0.257812 1.625 0.191406 1.5625 0.199219 C 1.476562 0.214844 1.257812 0.234375 1.097656 0.285156 C 0.933594 0.347656 0.789062 0.453125 0.710938 0.496094 C 0.652344 0.523438 0.6875 0.574219 0.710938 0.621094 C 0.894531 1.164062 1.148438 1.328125 1.316406 1.367188 C 1.328125 1.277344 1.359375 1.171875 1.398438 1.058594 Z M 1.46875 0.574219 C 1.554688 0.574219 1.617188 0.636719 1.617188 0.636719 C 1.617188 0.636719 1.554688 0.707031 1.46875 0.707031 C 1.386719 0.707031 1.324219 0.644531 1.324219 0.644531 C 1.324219 0.644531 1.394531 0.582031 1.46875 0.574219 Z M 1.117188 0.855469 C 1.054688 0.902344 0.957031 0.890625 0.957031 0.890625 C 0.957031 0.890625 0.96875 0.792969 1.035156 0.742188 C 1.097656 0.691406 1.195312 0.707031 1.195312 0.707031 C 1.195312 0.707031 1.183594 0.804688 1.117188 0.855469 Z M 1.117188 0.855469 " fill-opacity="1" fill-rule="nonzero"/></g></g></g></g><g clip-path="url(#60fdc5962b)"><path fill="#d0def2" d="M 75.175781 10.234375 L 96.273438 53 L 143.464844 59.859375 L 109.308594 93.171875 L 117.398438 140.171875 L 75.175781 117.984375 L 32.929688 140.171875 L 40.992188 93.171875 L 6.859375 59.859375 L 54.054688 53 Z M 75.175781 10.234375 " fill-opacity="1" fill-rule="nonzero"/></g><g clip-path="url(#2d7014ff26)"><path fill="#d0def2" d="M 74.847656 9.824219 L 95.972656 52.59375 L 143.164062 59.449219 L 109.007812 92.761719 L 117.070312 139.765625 L 74.847656 117.574219 L 32.628906 139.765625 L 40.691406 92.761719 L 6.53125 59.449219 L 53.726562 52.59375 Z M 74.847656 9.824219 " fill-opacity="1" fill-rule="nonzero"/><path fill="#d0def2" d="M 74.847656 9.824219 L 95.972656 52.59375 L 143.164062 59.449219 L 109.007812 92.761719 L 117.070312 139.765625 L 74.847656 117.574219 L 32.628906 139.765625 L 40.691406 92.761719 L 6.53125 59.449219 L 53.726562 52.59375 Z M 74.847656 9.824219 " fill-opacity="1" fill-rule="nonzero"/><path fill="#d0def2" d="M 74.847656 9.824219 L 95.972656 52.59375 L 143.164062 59.449219 L 109.007812 92.761719 L 117.070312 139.765625 L 74.847656 117.574219 L 32.628906 139.765625 L 40.691406 92.761719 L 6.53125 59.449219 L 53.726562 52.59375 Z M 74.847656 9.824219 " fill-opacity="1" fill-rule="nonzero"/></g></svg>