<svg xmlns="http://www.w3.org/2000/svg" xmlns:xlink="http://www.w3.org/1999/xlink" width="500" zoomAndPan="magnify" viewBox="0 0 375 374.999991" height="500" preserveAspectRatio="xMidYMid meet" version="1.0"><defs><filter x="0%" y="0%" width="100%" height="100%" id="96c1c68e13"><feColorMatrix values="0 0 0 0 1 0 0 0 0 1 0 0 0 0 1 0 0 0 1 0" color-interpolation-filters="sRGB"/></filter><g/><clipPath id="7ec47fd754"><path d="M 83.675781 40.765625 L 298.925781 40.765625 L 298.925781 256.015625 L 83.675781 256.015625 Z M 83.675781 40.765625 " clip-rule="nonzero"/></clipPath><mask id="b7f418f67b"><g filter="url(#96c1c68e13)"><rect x="-37.5" width="450" fill="#000000" y="-37.499999" height="449.999989" fill-opacity="0.25"/></g></mask><clipPath id="af1c82d745"><path d="M 103 0.765625 L 112 0.765625 L 112 216 L 103 216 Z M 103 0.765625 " clip-rule="nonzero"/></clipPath><clipPath id="2327ef0d7d"><path d="M 0.675781 99 L 215.925781 99 L 215.925781 194 L 0.675781 194 Z M 0.675781 99 " clip-rule="nonzero"/></clipPath><clipPath id="8548302b6e"><path d="M 78 0.765625 L 138 0.765625 L 138 5 L 78 5 Z M 78 0.765625 " clip-rule="nonzero"/></clipPath><clipPath id="39c49e8fff"><path d="M 0.675781 42 L 215.925781 42 L 215.925781 109 L 0.675781 109 Z M 0.675781 42 " clip-rule="nonzero"/></clipPath><clipPath id="2d15432cad"><rect x="0" width="216" y="0" height="217"/></clipPath><clipPath id="8eed9256db"><path d="M 187 40.765625 L 197 40.765625 L 197 256 L 187 256 Z M 187 40.765625 " clip-rule="nonzero"/></clipPath><clipPath id="d80c66388d"><path d="M 83.675781 62 L 298.925781 62 L 298.925781 157 L 83.675781 157 Z M 83.675781 62 " clip-rule="nonzero"/></clipPath><clipPath id="3b2a8b42ec"><path d="M 176 40.765625 L 201 40.765625 L 201 256 L 176 256 Z M 176 40.765625 " clip-rule="nonzero"/></clipPath><clipPath id="375be8b098"><path d="M 83.675781 147 L 298.925781 147 L 298.925781 215 L 83.675781 215 Z M 83.675781 147 " clip-rule="nonzero"/></clipPath><clipPath id="810c6f0415"><path d="M 81 142 L 133 142 L 133 239.359375 L 81 239.359375 Z M 81 142 " clip-rule="nonzero"/></clipPath></defs><g clip-path="url(#7ec47fd754)"><g mask="url(#b7f418f67b)"><g transform="matrix(1, 0, 0, 1, 83, 40)"><g clip-path="url(#2d15432cad)"><g clip-path="url(#af1c82d745)"><path fill="#0dcece" d="M 111.558594 215.863281 C 109.515625 215.863281 106.503906 167.789062 105 108.421875 C 103.386719 49.054688 103.816406 0.875 105.859375 0.765625 C 105.535156 0.765625 105.214844 0.765625 104.890625 0.765625 C 102.847656 0.875 102.417969 49.054688 104.03125 108.421875 C 105.644531 167.789062 108.546875 215.863281 110.589844 215.863281 C 110.914062 215.863281 111.238281 215.863281 111.558594 215.863281 Z M 111.558594 215.863281 " fill-opacity="1" fill-rule="nonzero"/></g><path fill="#0dcece" d="M 123.066406 214.789062 C 112.957031 216.1875 98.332031 169.617188 90.371094 110.679688 C 82.414062 51.960938 84.242188 3.023438 94.246094 1.625 C 93.921875 1.625 93.597656 1.734375 93.277344 1.734375 C 83.167969 3.132812 81.445312 51.960938 89.40625 110.789062 C 97.363281 169.617188 111.988281 216.1875 122.097656 214.894531 C 122.421875 214.894531 122.746094 214.894531 123.066406 214.789062 Z M 123.066406 214.789062 " fill-opacity="1" fill-rule="nonzero"/><path fill="#0dcece" d="M 135.003906 212.53125 C 117.476562 216.941406 91.554688 173.921875 77.035156 116.273438 C 62.515625 58.734375 64.882812 8.402344 82.304688 3.886719 C 82.304688 3.886719 82.304688 3.886719 82.414062 3.886719 C 82.089844 3.992188 81.769531 4.101562 81.445312 4.101562 C 64.023438 8.617188 61.550781 58.84375 76.175781 116.488281 C 90.695312 174.027344 116.613281 217.046875 134.039062 212.746094 C 134.359375 212.636719 134.683594 212.53125 135.003906 212.53125 Z M 135.003906 212.53125 " fill-opacity="1" fill-rule="nonzero"/><path fill="#0dcece" d="M 147.589844 208.441406 C 124.035156 217.691406 87.46875 180.371094 65.957031 124.984375 C 44.449219 69.597656 46.0625 17.222656 69.617188 7.972656 C 69.617188 7.972656 69.722656 7.972656 69.722656 7.863281 C 69.507812 7.972656 69.183594 8.078125 68.863281 8.1875 C 45.308594 17.4375 43.589844 69.8125 65.207031 125.199219 C 86.714844 180.371094 123.066406 217.800781 146.726562 208.765625 C 146.941406 208.660156 147.265625 208.550781 147.589844 208.441406 Z M 147.589844 208.441406 " fill-opacity="1" fill-rule="nonzero"/><path fill="#0dcece" d="M 161.140625 201.988281 C 133.390625 217.585938 87.46875 188.332031 58.429688 136.492188 C 29.390625 84.65625 28.425781 29.910156 56.0625 14.316406 C 56.171875 14.316406 56.28125 14.210938 56.28125 14.210938 C 55.957031 14.425781 55.632812 14.53125 55.3125 14.746094 C 27.671875 30.34375 28.640625 84.976562 57.675781 136.816406 C 86.609375 188.4375 132.316406 217.800781 160.171875 202.527344 C 160.496094 202.3125 160.816406 202.097656 161.140625 201.988281 Z M 161.140625 201.988281 " fill-opacity="1" fill-rule="nonzero"/><path fill="#0dcece" d="M 175.550781 192.203125 C 146.40625 215.648438 92.738281 196.933594 55.742188 150.472656 C 18.746094 104.011719 12.292969 47.335938 41.546875 23.996094 C 41.652344 23.890625 41.761719 23.78125 41.867188 23.675781 C 41.546875 23.890625 41.222656 24.210938 40.898438 24.425781 C 11.753906 47.871094 18.097656 104.445312 55.097656 150.90625 C 91.984375 197.152344 145.328125 215.863281 174.582031 192.957031 C 174.90625 192.742188 175.226562 192.417969 175.550781 192.203125 Z M 175.550781 192.203125 " fill-opacity="1" fill-rule="nonzero"/><path fill="#0dcece" d="M 190.394531 177.683594 C 163.398438 209.625 104.890625 204.355469 59.613281 165.855469 C 14.335938 127.351562 -0.507812 70.351562 26.488281 38.410156 C 26.597656 38.191406 26.8125 38.085938 26.917969 37.871094 C 26.597656 38.191406 26.382812 38.515625 26.058594 38.839844 C -0.9375 70.886719 13.90625 127.890625 59.183594 166.390625 C 104.136719 204.679688 162.324219 210.164062 189.53125 178.757812 C 189.855469 178.328125 190.070312 178.007812 190.394531 177.683594 Z M 190.394531 177.683594 " fill-opacity="1" fill-rule="nonzero"/><path fill="#0dcece" d="M 204.050781 157.140625 C 183.617188 197.152344 124.25 207.691406 71.445312 180.589844 C 18.636719 153.484375 -7.710938 99.066406 12.722656 58.949219 C 12.828125 58.734375 12.9375 58.414062 13.042969 58.199219 C 12.828125 58.628906 12.613281 59.058594 12.398438 59.488281 C -8.035156 99.496094 18.316406 154.023438 71.121094 181.125 C 123.605469 208.011719 182.648438 197.902344 203.40625 158.433594 C 203.621094 158.003906 203.835938 157.574219 204.050781 157.140625 Z M 204.050781 157.140625 " fill-opacity="1" fill-rule="nonzero"/><path fill="#0dcece" d="M 213.515625 130.253906 C 203.945312 176.070312 149.09375 203.171875 91.019531 190.804688 C 32.941406 178.542969 -6.421875 131.4375 3.148438 85.730469 C 3.148438 85.40625 3.148438 85.191406 3.257812 84.871094 C 3.148438 85.40625 3.042969 85.835938 2.933594 86.375 C -6.636719 132.082031 32.726562 179.191406 90.800781 191.449219 C 148.449219 203.710938 202.976562 177.039062 213.085938 131.867188 C 213.300781 131.332031 213.410156 130.792969 213.515625 130.253906 Z M 213.515625 130.253906 " fill-opacity="1" fill-rule="nonzero"/><g clip-path="url(#2327ef0d7d)"><path fill="#0dcece" d="M 215.453125 99.820312 C 219.109375 146.710938 174.152344 188.4375 114.894531 192.957031 C 55.632812 197.472656 4.65625 163.164062 1 116.167969 C 1 115.84375 1 115.519531 0.890625 115.199219 C 0.890625 115.734375 1 116.273438 1 116.703125 C 4.761719 163.703125 55.742188 198.117188 115 193.601562 C 173.722656 189.085938 218.570312 148 215.558594 101.433594 C 215.558594 100.894531 215.453125 100.355469 215.453125 99.820312 Z M 215.453125 99.820312 " fill-opacity="1" fill-rule="nonzero"/></g><path fill="#0dcece" d="M 209 70.78125 C 225.023438 113.90625 192.867188 165.53125 137.15625 186.074219 C 81.445312 206.613281 23.261719 188.332031 7.238281 145.203125 C 7.128906 144.988281 7.023438 144.667969 6.914062 144.453125 C 7.128906 144.882812 7.238281 145.3125 7.453125 145.851562 C 23.476562 188.976562 81.660156 207.261719 137.371094 186.71875 C 192.652344 166.285156 224.914062 115.304688 209.535156 72.285156 C 209.320312 71.75 209.214844 71.320312 209 70.78125 Z M 209 70.78125 " fill-opacity="1" fill-rule="nonzero"/><path fill="#0dcece" d="M 196.738281 47.226562 C 221.472656 83.042969 201.792969 139.398438 152.75 172.953125 C 103.707031 206.507812 44.019531 204.679688 19.28125 168.863281 C 19.175781 168.648438 19.066406 168.433594 18.960938 168.21875 C 19.175781 168.648438 19.390625 168.972656 19.710938 169.402344 C 44.449219 205.214844 104.136719 207.046875 153.179688 173.488281 C 201.792969 140.148438 221.691406 84.332031 197.492188 48.410156 C 197.277344 47.980469 197.0625 47.65625 196.738281 47.226562 Z M 196.738281 47.226562 " fill-opacity="1" fill-rule="nonzero"/><path fill="#0dcece" d="M 182.113281 30.128906 C 211.042969 57.445312 201.253906 114.445312 160.277344 157.464844 C 119.304688 200.484375 62.730469 213.28125 33.910156 185.964844 C 33.695312 185.859375 33.585938 185.75 33.480469 185.644531 C 33.800781 185.964844 34.125 186.179688 34.339844 186.503906 C 63.269531 213.820312 119.839844 201.023438 160.816406 158.003906 C 201.46875 115.199219 211.472656 58.519531 182.972656 30.988281 C 182.648438 30.664062 182.328125 30.449219 182.113281 30.128906 Z M 182.113281 30.128906 " fill-opacity="1" fill-rule="nonzero"/><path fill="#0dcece" d="M 167.269531 18.40625 C 196.308594 37.441406 193.296875 93.152344 160.496094 142.625 C 127.691406 192.203125 77.574219 216.832031 48.535156 197.796875 C 48.429688 197.6875 48.320312 197.6875 48.214844 197.582031 C 48.535156 197.796875 48.859375 198.011719 49.179688 198.226562 C 78.21875 217.261719 128.335938 192.632812 161.140625 143.054688 C 193.726562 93.796875 196.953125 38.300781 168.238281 19.050781 C 167.914062 18.835938 167.59375 18.621094 167.269531 18.40625 Z M 167.269531 18.40625 " fill-opacity="1" fill-rule="nonzero"/><path fill="#0dcece" d="M 153.289062 10.660156 C 179.316406 22.707031 180.066406 76.050781 155.007812 129.933594 C 129.949219 183.816406 88.4375 217.691406 62.410156 205.648438 C 62.300781 205.648438 62.300781 205.539062 62.195312 205.539062 C 62.515625 205.648438 62.839844 205.863281 63.164062 205.96875 C 89.1875 218.015625 130.703125 184.136719 155.761719 130.253906 C 180.820312 76.589844 180.066406 23.351562 154.257812 11.089844 C 153.933594 10.984375 153.609375 10.769531 153.289062 10.660156 Z M 153.289062 10.660156 " fill-opacity="1" fill-rule="nonzero"/><path fill="#0dcece" d="M 140.273438 5.605469 C 161.03125 12.058594 163.398438 63.253906 145.4375 119.929688 C 127.476562 176.609375 96.179688 217.15625 75.421875 210.703125 L 75.316406 210.703125 C 75.53125 210.808594 75.851562 210.917969 76.175781 211.023438 C 96.933594 217.476562 128.335938 176.929688 146.191406 120.253906 C 164.152344 63.683594 161.890625 12.597656 141.242188 5.929688 C 140.921875 5.820312 140.597656 5.714844 140.273438 5.605469 Z M 140.273438 5.605469 " fill-opacity="1" fill-rule="nonzero"/><path fill="#0dcece" d="M 128.015625 2.59375 C 141.886719 5.175781 144.148438 54.648438 132.960938 112.941406 C 121.777344 171.230469 101.449219 216.402344 87.46875 213.820312 C 87.792969 213.929688 88.113281 213.929688 88.4375 214.035156 C 102.308594 216.617188 122.746094 171.445312 133.929688 113.15625 C 145.113281 54.863281 142.855469 5.5 128.984375 2.808594 C 128.660156 2.703125 128.335938 2.703125 128.015625 2.59375 Z M 128.015625 2.59375 " fill-opacity="1" fill-rule="nonzero"/><path fill="#0dcece" d="M 116.398438 1.089844 C 122.53125 1.625 123.605469 50.023438 118.871094 109.175781 C 114.140625 168.433594 105.320312 215.972656 99.191406 215.542969 C 99.515625 215.542969 99.835938 215.542969 100.160156 215.648438 C 106.183594 216.078125 115 168.433594 119.839844 109.28125 C 124.574219 50.023438 123.496094 1.734375 117.367188 1.195312 C 116.9375 1.089844 116.613281 1.089844 116.398438 1.089844 Z M 116.398438 1.089844 " fill-opacity="1" fill-rule="nonzero"/><g clip-path="url(#8548302b6e)"><path fill="#0dcece" d="M 137.585938 4.851562 C 118.980469 -0.417969 97.46875 -0.417969 78.863281 4.851562 C 79.832031 4.53125 80.800781 4.316406 81.660156 4.101562 C 98.652344 -0.203125 117.691406 -0.203125 134.683594 4.101562 C 135.652344 4.316406 136.617188 4.53125 137.585938 4.851562 Z M 137.585938 4.851562 " fill-opacity="1" fill-rule="nonzero"/></g><path fill="#0dcece" d="M 171.894531 21.628906 C 142.75 0.230469 90.585938 -2.78125 55.417969 14.960938 C 51.441406 17.007812 47.78125 19.15625 44.554688 21.628906 C 44.988281 21.308594 45.417969 20.984375 45.847656 20.769531 C 75.316406 -0.308594 127.046875 -2.78125 161.570312 15.179688 C 164.796875 16.898438 167.808594 18.726562 170.605469 20.769531 C 171.035156 20.984375 171.464844 21.308594 171.894531 21.628906 Z M 171.894531 21.628906 " fill-opacity="1" fill-rule="nonzero"/><path fill="#0dcece" d="M 192.113281 41.097656 C 169.527344 12.917969 113.601562 1.195312 67.25 14.960938 C 48.535156 20.449219 33.480469 29.695312 24.335938 41.097656 C 24.660156 40.773438 24.875 40.453125 25.199219 40.023438 C 48.105469 12.058594 103.921875 0.765625 149.847656 14.746094 C 167.808594 20.234375 182.328125 29.050781 191.359375 40.023438 C 191.574219 40.34375 191.898438 40.667969 192.113281 41.097656 Z M 192.113281 41.097656 " fill-opacity="1" fill-rule="nonzero"/><path fill="#0dcece" d="M 205.558594 62.5 C 190.175781 29.804688 134.144531 10.875 80.371094 20.234375 C 46.816406 26.039062 20.574219 42.066406 11 62.5 C 11.109375 62.175781 11.324219 61.746094 11.429688 61.425781 C 27.242188 28.835938 83.382812 10.230469 136.832031 19.910156 C 169.636719 25.71875 195.339844 41.417969 205.019531 61.425781 C 205.128906 61.746094 205.34375 62.175781 205.558594 62.5 Z M 205.558594 62.5 " fill-opacity="1" fill-rule="nonzero"/><path fill="#0dcece" d="M 213.300781 85.40625 C 205.558594 50.023438 152.320312 25.179688 94.246094 29.910156 C 46.816406 33.785156 9.496094 56.476562 3.148438 85.40625 C 3.257812 84.976562 3.367188 84.546875 3.367188 84.222656 C 11.539062 48.949219 64.992188 24.425781 122.960938 29.375 C 169.742188 33.355469 206.523438 55.722656 213.085938 84.222656 C 213.085938 84.546875 213.191406 84.976562 213.300781 85.40625 Z M 213.300781 85.40625 " fill-opacity="1" fill-rule="nonzero"/><g clip-path="url(#39c49e8fff)"><path fill="#0dcece" d="M 215.773438 108.851562 C 215.988281 72.714844 167.914062 43.25 108.546875 43.140625 C 49.179688 43.140625 0.890625 72.285156 0.675781 108.53125 C 0.675781 108.636719 0.675781 108.851562 0.675781 108.960938 C 0.675781 108.53125 0.675781 108.207031 0.675781 107.777344 C 0.890625 71.535156 49.179688 42.386719 108.546875 42.496094 C 167.699219 42.601562 215.558594 71.75 215.773438 107.667969 C 215.773438 108.101562 215.773438 108.53125 215.773438 108.851562 Z M 215.773438 108.851562 " fill-opacity="1" fill-rule="nonzero"/></g><path fill="#0dcece" d="M 213.085938 132.40625 C 221.152344 97.128906 180.820312 64.648438 122.960938 59.703125 C 65.097656 54.757812 11.539062 79.277344 3.472656 114.554688 C 2.074219 120.46875 2.074219 126.492188 3.472656 132.40625 C 3.367188 131.976562 3.257812 131.652344 3.257812 131.222656 C -4.59375 95.945312 36.273438 63.46875 94.246094 58.84375 C 152.320312 54.109375 205.558594 78.953125 213.300781 114.339844 C 214.484375 120.039062 214.484375 125.738281 213.300781 131.332031 C 213.191406 131.652344 213.085938 132.082031 213.085938 132.40625 Z M 213.085938 132.40625 " fill-opacity="1" fill-rule="nonzero"/><path fill="#0dcece" d="M 205.019531 155.207031 C 220.828125 122.621094 190.285156 88.527344 136.832031 78.953125 C 83.382812 69.382812 27.242188 87.882812 11.429688 120.46875 C 5.945312 131.867188 5.945312 143.914062 11.429688 155.207031 C 11.214844 154.882812 11.109375 154.453125 10.894531 154.132812 C -4.484375 121.4375 26.597656 87.34375 80.261719 77.878906 C 134.039062 68.523438 190.175781 87.449219 205.558594 120.144531 C 210.828125 131.222656 210.828125 143.054688 205.558594 154.132812 C 205.34375 154.453125 205.128906 154.882812 205.019531 155.207031 Z M 205.019531 155.207031 " fill-opacity="1" fill-rule="nonzero"/><path fill="#0dcece" d="M 191.359375 176.609375 C 214.269531 148.644531 195.769531 114.660156 149.847656 100.679688 C 103.921875 86.699219 48.105469 97.992188 25.199219 125.953125 C 12.078125 141.871094 12.078125 160.691406 25.199219 176.609375 C 24.875 176.285156 24.660156 175.964844 24.335938 175.535156 C 1.753906 147.355469 21.003906 113.261719 67.25 99.496094 C 113.601562 85.835938 169.527344 97.558594 192.113281 125.738281 C 204.695312 141.441406 204.695312 159.832031 192.113281 175.640625 C 191.898438 175.964844 191.574219 176.285156 191.359375 176.609375 Z M 191.359375 176.609375 " fill-opacity="1" fill-rule="nonzero"/><path fill="#0dcece" d="M 170.605469 195.859375 C 200.070312 174.886719 195.984375 143.375 161.570312 125.414062 C 127.152344 107.453125 75.316406 109.929688 45.847656 130.902344 C 19.605469 149.613281 19.605469 177.144531 45.847656 195.859375 C 45.417969 195.539062 44.988281 195.214844 44.554688 195 C 15.410156 173.597656 20.25 141.871094 55.417969 124.125 C 90.585938 106.378906 142.75 109.390625 171.894531 130.792969 C 197.277344 149.398438 197.277344 176.394531 171.894531 195 C 171.464844 195.320312 171.035156 195.644531 170.605469 195.859375 Z M 170.605469 195.859375 " fill-opacity="1" fill-rule="nonzero"/><path fill="#0dcece" d="M 134.789062 212.53125 C 169.742188 203.601562 186.304688 179.082031 171.679688 157.789062 C 157.050781 136.492188 116.722656 126.382812 81.660156 135.308594 C 46.707031 144.238281 30.144531 168.757812 44.773438 190.050781 C 51.761719 200.269531 64.992188 208.335938 81.660156 212.53125 C 80.691406 212.316406 79.726562 211.992188 78.863281 211.777344 C 44.125 201.882812 29.070312 176.714844 45.203125 155.527344 C 61.441406 134.34375 102.742188 125.199219 137.585938 135.09375 C 172.324219 144.988281 187.382812 170.15625 171.25 191.34375 C 164.367188 200.378906 152.429688 207.582031 137.585938 211.777344 C 136.617188 212.101562 135.652344 212.316406 134.789062 212.53125 Z M 134.789062 212.53125 " fill-opacity="1" fill-rule="nonzero"/><path fill="#0dcece" d="M 161.570312 182.417969 C 161.570312 200.378906 137.695312 214.894531 108.226562 214.894531 C 78.757812 214.894531 54.882812 200.378906 54.882812 182.417969 C 54.882812 164.457031 78.757812 149.9375 108.226562 149.9375 C 137.695312 149.9375 161.570312 164.457031 161.570312 182.417969 Z M 162.429688 181.984375 C 162.429688 163.808594 138.230469 148.96875 108.226562 148.96875 C 78.328125 148.96875 54.019531 163.703125 54.019531 181.984375 C 54.019531 200.160156 78.21875 215.003906 108.226562 215.003906 C 138.125 215.003906 162.429688 200.269531 162.429688 181.984375 Z M 162.429688 181.984375 " fill-opacity="1" fill-rule="nonzero"/><path fill="#0dcece" d="M 144.578125 188.652344 C 144.578125 200.914062 128.335938 210.808594 108.226562 210.808594 C 88.113281 210.808594 71.875 200.808594 71.875 188.652344 C 71.875 176.394531 88.113281 166.5 108.226562 166.5 C 128.335938 166.5 144.578125 176.394531 144.578125 188.652344 Z M 145.4375 188.332031 C 145.4375 175.855469 128.765625 165.640625 108.226562 165.640625 C 87.683594 165.640625 71.011719 175.75 71.011719 188.332031 C 71.011719 200.914062 87.683594 211.023438 108.226562 211.023438 C 128.765625 211.023438 145.4375 200.914062 145.4375 188.332031 Z M 145.4375 188.332031 " fill-opacity="1" fill-rule="nonzero"/><path fill="#0dcece" d="M 126.402344 192.417969 C 126.402344 198.546875 118.226562 203.496094 108.226562 203.496094 C 98.117188 203.496094 90.050781 198.546875 90.050781 192.417969 C 90.050781 186.289062 98.117188 181.339844 108.226562 181.339844 C 118.335938 181.339844 126.402344 186.289062 126.402344 192.417969 Z M 127.371094 192.3125 C 127.371094 185.859375 118.765625 180.695312 108.226562 180.695312 C 97.6875 180.695312 89.082031 185.859375 89.082031 192.3125 C 89.082031 198.765625 97.6875 203.925781 108.226562 203.925781 C 118.765625 203.925781 127.371094 198.765625 127.371094 192.3125 Z M 127.371094 192.3125 " fill-opacity="1" fill-rule="nonzero"/></g></g></g></g><g clip-path="url(#8eed9256db)"><path fill="#0dcece" d="M 187.890625 40.765625 C 189.933594 40.765625 192.945312 88.839844 194.453125 148.207031 C 196.066406 207.574219 195.636719 255.757812 193.589844 255.863281 C 193.914062 255.863281 194.238281 255.863281 194.558594 255.863281 C 196.601562 255.757812 197.03125 207.574219 195.417969 148.207031 C 193.808594 88.839844 190.902344 40.765625 188.859375 40.765625 C 188.535156 40.765625 188.214844 40.765625 187.890625 40.765625 Z M 187.890625 40.765625 " fill-opacity="1" fill-rule="nonzero"/></g><path fill="#0dcece" d="M 176.382812 41.84375 C 186.492188 40.445312 201.121094 87.011719 209.078125 145.949219 C 217.039062 204.886719 215.207031 253.605469 205.207031 255.003906 C 205.53125 255.003906 205.851562 254.894531 206.175781 254.894531 C 216.285156 253.496094 218.003906 204.671875 210.046875 145.839844 C 202.089844 87.011719 187.460938 40.445312 177.351562 41.734375 C 177.027344 41.734375 176.707031 41.734375 176.382812 41.84375 Z M 176.382812 41.84375 " fill-opacity="1" fill-rule="nonzero"/><path fill="#0dcece" d="M 164.445312 44.101562 C 181.976562 39.691406 207.894531 82.710938 222.414062 140.355469 C 236.933594 197.894531 234.566406 248.226562 217.144531 252.746094 C 217.144531 252.746094 217.144531 252.746094 217.039062 252.746094 C 217.359375 252.636719 217.683594 252.53125 218.003906 252.53125 C 235.429688 248.011719 237.902344 197.789062 223.273438 140.140625 C 208.757812 82.601562 182.835938 39.582031 165.414062 43.886719 C 165.089844 43.992188 164.769531 44.101562 164.445312 44.101562 Z M 164.445312 44.101562 " fill-opacity="1" fill-rule="nonzero"/><path fill="#0dcece" d="M 151.863281 48.1875 C 175.414062 38.9375 211.984375 76.257812 233.492188 131.644531 C 255.003906 187.03125 253.390625 239.410156 229.835938 248.660156 C 229.835938 248.660156 229.726562 248.660156 229.726562 248.765625 C 229.941406 248.660156 230.265625 248.550781 230.589844 248.441406 C 254.140625 239.195312 255.863281 186.816406 234.246094 131.429688 C 212.734375 76.257812 176.382812 38.832031 152.722656 47.863281 C 152.507812 47.972656 152.183594 48.078125 151.863281 48.1875 Z M 151.863281 48.1875 " fill-opacity="1" fill-rule="nonzero"/><path fill="#0dcece" d="M 138.3125 54.640625 C 166.058594 39.046875 211.984375 68.300781 241.019531 120.136719 C 270.058594 171.976562 271.027344 226.71875 243.386719 242.3125 C 243.277344 242.3125 243.171875 242.421875 243.171875 242.421875 C 243.496094 242.207031 243.816406 242.097656 244.140625 241.882812 C 271.78125 226.289062 270.8125 171.652344 241.773438 119.816406 C 212.84375 68.191406 167.132812 38.832031 139.28125 54.101562 C 138.957031 54.316406 138.632812 54.53125 138.3125 54.640625 Z M 138.3125 54.640625 " fill-opacity="1" fill-rule="nonzero"/><path fill="#0dcece" d="M 123.898438 64.425781 C 153.046875 40.980469 206.710938 59.695312 243.710938 106.15625 C 280.707031 152.617188 287.160156 209.296875 257.90625 232.632812 C 257.796875 232.742188 257.691406 232.847656 257.582031 232.957031 C 257.90625 232.742188 258.226562 232.417969 258.550781 232.203125 C 287.695312 208.757812 281.351562 152.1875 244.355469 105.726562 C 207.464844 59.480469 154.121094 40.765625 124.867188 63.675781 C 124.546875 63.890625 124.222656 64.210938 123.898438 64.425781 Z M 123.898438 64.425781 " fill-opacity="1" fill-rule="nonzero"/><path fill="#0dcece" d="M 109.058594 78.945312 C 136.054688 47.003906 194.558594 52.273438 239.835938 90.777344 C 285.117188 129.277344 299.957031 186.28125 272.960938 218.222656 C 272.855469 218.4375 272.640625 218.542969 272.53125 218.757812 C 272.855469 218.4375 273.070312 218.113281 273.394531 217.792969 C 300.386719 185.742188 285.546875 128.742188 240.269531 90.238281 C 195.3125 51.953125 137.128906 46.464844 109.917969 77.871094 C 109.597656 78.300781 109.382812 78.625 109.058594 78.945312 Z M 109.058594 78.945312 " fill-opacity="1" fill-rule="nonzero"/><path fill="#0dcece" d="M 95.398438 99.488281 C 115.832031 59.480469 175.199219 48.941406 228.007812 76.042969 C 280.8125 103.144531 307.164062 157.5625 286.730469 197.679688 C 286.621094 197.894531 286.515625 198.21875 286.40625 198.433594 C 286.621094 198.003906 286.835938 197.574219 287.050781 197.140625 C 307.484375 157.132812 281.136719 102.605469 228.328125 75.503906 C 175.847656 48.617188 116.800781 58.726562 96.042969 98.199219 C 95.828125 98.628906 95.613281 99.058594 95.398438 99.488281 Z M 95.398438 99.488281 " fill-opacity="1" fill-rule="nonzero"/><path fill="#0dcece" d="M 85.933594 126.375 C 95.507812 80.558594 150.355469 53.457031 208.433594 65.824219 C 266.507812 78.085938 305.871094 125.191406 296.300781 170.902344 C 296.300781 171.222656 296.300781 171.4375 296.191406 171.761719 C 296.300781 171.222656 296.410156 170.792969 296.515625 170.253906 C 306.085938 124.546875 266.726562 77.441406 208.648438 65.179688 C 151.003906 52.917969 96.476562 79.589844 86.367188 124.761719 C 86.148438 125.300781 86.042969 125.835938 85.933594 126.375 Z M 85.933594 126.375 " fill-opacity="1" fill-rule="nonzero"/><g clip-path="url(#d80c66388d)"><path fill="#0dcece" d="M 84 156.8125 C 80.34375 109.921875 125.296875 68.191406 184.558594 63.675781 C 243.816406 59.15625 294.796875 93.464844 298.453125 140.464844 C 298.453125 140.785156 298.453125 141.109375 298.558594 141.433594 C 298.558594 140.894531 298.453125 140.355469 298.453125 139.925781 C 294.6875 92.925781 243.710938 58.511719 184.449219 63.027344 C 125.726562 67.546875 80.878906 108.628906 83.890625 155.199219 C 83.890625 155.734375 84 156.273438 84 156.8125 Z M 84 156.8125 " fill-opacity="1" fill-rule="nonzero"/></g><path fill="#0dcece" d="M 90.453125 185.851562 C 74.425781 142.722656 106.585938 91.097656 162.292969 70.558594 C 218.003906 50.015625 276.1875 68.300781 292.214844 111.425781 C 292.320312 111.640625 292.429688 111.964844 292.535156 112.179688 C 292.320312 111.75 292.214844 111.320312 292 110.78125 C 275.972656 67.652344 217.789062 49.371094 162.078125 69.910156 C 106.800781 90.347656 74.535156 141.324219 89.914062 184.34375 C 90.128906 184.882812 90.238281 185.3125 90.453125 185.851562 Z M 90.453125 185.851562 " fill-opacity="1" fill-rule="nonzero"/><path fill="#0dcece" d="M 102.710938 209.402344 C 77.976562 173.589844 97.65625 117.339844 146.699219 83.679688 C 195.742188 50.125 255.433594 51.953125 280.167969 87.765625 C 280.277344 87.980469 280.382812 88.195312 280.492188 88.410156 C 280.277344 87.980469 280.0625 87.65625 279.738281 87.226562 C 255.003906 51.414062 195.3125 49.585938 146.269531 83.140625 C 97.65625 116.480469 77.761719 172.296875 101.960938 208.21875 C 102.175781 208.648438 102.390625 208.972656 102.710938 209.402344 Z M 102.710938 209.402344 " fill-opacity="1" fill-rule="nonzero"/><path fill="#0dcece" d="M 117.339844 226.503906 C 88.410156 199.1875 98.195312 142.183594 139.171875 99.164062 C 180.148438 56.144531 236.71875 43.347656 265.542969 70.664062 C 265.757812 70.773438 265.863281 70.878906 265.972656 70.988281 C 265.648438 70.664062 265.328125 70.449219 265.113281 70.128906 C 236.179688 42.808594 179.609375 55.609375 138.632812 98.628906 C 97.980469 141.433594 87.980469 198.109375 116.480469 225.644531 C 116.800781 225.964844 117.125 226.179688 117.339844 226.503906 Z M 117.339844 226.503906 " fill-opacity="1" fill-rule="nonzero"/><path fill="#0dcece" d="M 132.179688 238.226562 C 103.144531 219.191406 106.15625 163.480469 138.957031 114.007812 C 171.757812 64.425781 221.875 39.796875 250.914062 58.835938 C 251.023438 58.941406 251.128906 58.941406 251.238281 59.050781 C 250.914062 58.835938 250.59375 58.621094 250.269531 58.40625 C 221.230469 39.367188 171.113281 63.996094 138.3125 113.578125 C 105.722656 162.835938 102.496094 218.328125 131.214844 237.582031 C 131.535156 237.796875 131.859375 238.011719 132.179688 238.226562 Z M 132.179688 238.226562 " fill-opacity="1" fill-rule="nonzero"/><path fill="#0dcece" d="M 146.164062 245.96875 C 120.136719 233.925781 119.382812 180.578125 144.441406 126.699219 C 169.5 72.816406 211.015625 38.9375 237.042969 50.984375 C 237.148438 50.984375 237.148438 51.089844 237.257812 51.089844 C 236.933594 50.984375 236.609375 50.769531 236.289062 50.660156 C 210.261719 38.617188 168.746094 72.492188 143.6875 126.375 C 118.628906 180.042969 119.382812 233.277344 145.195312 245.539062 C 145.515625 245.648438 145.839844 245.863281 146.164062 245.96875 Z M 146.164062 245.96875 " fill-opacity="1" fill-rule="nonzero"/><path fill="#0dcece" d="M 159.175781 251.023438 C 138.417969 244.570312 136.054688 193.378906 154.011719 136.699219 C 171.972656 80.023438 203.269531 39.476562 224.027344 45.929688 L 224.136719 45.929688 C 223.921875 45.820312 223.597656 45.714844 223.273438 45.605469 C 202.519531 39.152344 171.113281 79.699219 153.261719 136.378906 C 135.300781 192.949219 137.558594 244.035156 158.207031 250.703125 C 158.53125 250.808594 158.851562 250.917969 159.175781 251.023438 Z M 159.175781 251.023438 " fill-opacity="1" fill-rule="nonzero"/><path fill="#0dcece" d="M 171.4375 254.035156 C 157.5625 251.453125 155.304688 201.980469 166.488281 143.691406 C 177.675781 85.398438 198 40.230469 211.984375 42.808594 C 211.660156 42.703125 211.335938 42.703125 211.015625 42.59375 C 197.140625 40.011719 176.707031 85.183594 165.519531 143.476562 C 154.335938 201.765625 156.59375 251.132812 170.46875 253.820312 C 170.792969 253.929688 171.113281 253.929688 171.4375 254.035156 Z M 171.4375 254.035156 " fill-opacity="1" fill-rule="nonzero"/><g clip-path="url(#3b2a8b42ec)"><path fill="#0dcece" d="M 183.050781 255.542969 C 176.921875 255.003906 175.847656 206.605469 180.578125 147.453125 C 185.308594 88.195312 194.128906 40.660156 200.257812 41.089844 C 199.9375 41.089844 199.613281 41.089844 199.292969 40.980469 C 193.269531 40.550781 184.449219 88.195312 179.609375 147.347656 C 174.878906 206.605469 175.953125 254.894531 182.082031 255.433594 C 182.515625 255.542969 182.835938 255.542969 183.050781 255.542969 Z M 183.050781 255.542969 " fill-opacity="1" fill-rule="nonzero"/></g><path fill="#0dcece" d="M 161.863281 251.777344 C 180.46875 257.046875 201.980469 257.046875 220.585938 251.777344 C 219.617188 252.101562 218.652344 252.316406 217.789062 252.53125 C 200.796875 256.832031 181.761719 256.832031 164.769531 252.53125 C 163.800781 252.316406 162.832031 252.101562 161.863281 251.777344 Z M 161.863281 251.777344 " fill-opacity="1" fill-rule="nonzero"/><path fill="#0dcece" d="M 127.554688 235 C 156.703125 256.402344 208.863281 259.414062 244.03125 241.667969 C 248.011719 239.625 251.667969 237.472656 254.894531 235 C 254.464844 235.320312 254.035156 235.644531 253.605469 235.859375 C 224.136719 256.941406 172.40625 259.414062 137.882812 241.453125 C 134.65625 239.730469 131.644531 237.902344 128.847656 235.859375 C 128.417969 235.644531 127.988281 235.320312 127.554688 235 Z M 127.554688 235 " fill-opacity="1" fill-rule="nonzero"/><path fill="#0dcece" d="M 107.335938 215.53125 C 129.921875 243.710938 185.847656 255.433594 232.203125 241.667969 C 250.914062 236.183594 265.972656 226.933594 275.113281 215.53125 C 274.789062 215.855469 274.574219 216.179688 274.253906 216.609375 C 251.34375 244.570312 195.527344 255.863281 149.605469 241.882812 C 131.644531 236.398438 117.125 227.578125 108.089844 216.609375 C 107.875 216.285156 107.550781 215.964844 107.335938 215.53125 Z M 107.335938 215.53125 " fill-opacity="1" fill-rule="nonzero"/><path fill="#0dcece" d="M 93.894531 194.132812 C 109.273438 226.824219 165.304688 245.753906 219.082031 236.398438 C 252.636719 230.589844 278.878906 214.566406 288.449219 194.132812 C 288.34375 194.453125 288.128906 194.882812 288.019531 195.207031 C 272.210938 227.792969 216.070312 246.398438 162.617188 236.71875 C 129.816406 230.914062 104.109375 215.210938 94.429688 195.207031 C 94.324219 194.882812 94.109375 194.453125 93.894531 194.132812 Z M 93.894531 194.132812 " fill-opacity="1" fill-rule="nonzero"/><path fill="#0dcece" d="M 86.148438 171.222656 C 93.894531 206.605469 147.128906 231.449219 205.207031 226.71875 C 252.636719 222.847656 289.957031 200.152344 296.300781 171.222656 C 296.191406 171.652344 296.085938 172.082031 296.085938 172.40625 C 287.910156 207.683594 234.460938 232.203125 176.492188 227.257812 C 129.707031 223.277344 92.925781 200.90625 86.367188 172.40625 C 86.367188 172.082031 86.257812 171.652344 86.148438 171.222656 Z M 86.148438 171.222656 " fill-opacity="1" fill-rule="nonzero"/><g clip-path="url(#375be8b098)"><path fill="#0dcece" d="M 83.675781 147.667969 C 83.460938 183.804688 131.535156 213.273438 190.902344 213.382812 C 250.269531 213.488281 298.558594 184.34375 298.773438 148.101562 C 298.773438 147.992188 298.773438 147.777344 298.773438 147.667969 C 298.773438 148.101562 298.773438 148.421875 298.773438 148.851562 C 298.558594 185.097656 250.269531 214.242188 190.902344 214.136719 C 131.75 214.027344 83.890625 184.882812 83.675781 148.851562 C 83.675781 148.53125 83.675781 148.101562 83.675781 147.667969 Z M 83.675781 147.667969 " fill-opacity="1" fill-rule="nonzero"/></g><path fill="#0dcece" d="M 86.367188 124.222656 C 78.300781 159.5 118.628906 191.980469 176.492188 196.925781 C 234.351562 201.875 287.910156 177.351562 295.976562 142.078125 C 297.375 136.164062 297.375 130.140625 295.976562 124.222656 C 296.085938 124.65625 296.191406 124.976562 296.191406 125.40625 C 304.042969 160.683594 263.285156 193.164062 205.207031 197.789062 C 147.128906 202.519531 93.894531 177.675781 86.148438 142.292969 C 84.96875 136.59375 84.96875 130.890625 86.148438 125.300781 C 86.257812 124.976562 86.367188 124.546875 86.367188 124.222656 Z M 86.367188 124.222656 " fill-opacity="1" fill-rule="nonzero"/><path fill="#0dcece" d="M 94.429688 101.425781 C 78.621094 134.011719 109.164062 168.105469 162.617188 177.675781 C 216.070312 187.246094 272.210938 168.75 288.019531 136.164062 C 293.503906 124.761719 293.503906 112.714844 288.019531 101.425781 C 288.234375 101.746094 288.34375 102.175781 288.558594 102.5 C 303.9375 135.195312 272.855469 169.289062 219.1875 178.75 C 165.414062 188.109375 109.273438 169.179688 93.894531 136.484375 C 88.625 125.40625 88.625 113.578125 93.894531 102.5 C 94.109375 102.175781 94.324219 101.746094 94.429688 101.425781 Z M 94.429688 101.425781 " fill-opacity="1" fill-rule="nonzero"/><path fill="#0dcece" d="M 108.089844 80.023438 C 85.183594 107.984375 103.679688 141.96875 149.605469 155.949219 C 195.527344 169.933594 251.34375 158.640625 274.253906 130.675781 C 287.375 114.761719 287.375 95.9375 274.253906 80.023438 C 274.574219 80.34375 274.789062 80.667969 275.113281 81.097656 C 297.699219 109.273438 278.449219 143.367188 232.203125 157.132812 C 185.847656 170.792969 129.921875 159.070312 107.335938 130.890625 C 94.753906 115.191406 94.753906 96.800781 107.335938 80.988281 C 107.550781 80.667969 107.875 80.34375 108.089844 80.023438 Z M 108.089844 80.023438 " fill-opacity="1" fill-rule="nonzero"/><path fill="#0dcece" d="M 128.847656 60.769531 C 99.378906 81.742188 103.464844 113.253906 137.882812 131.214844 C 172.296875 149.175781 224.136719 146.703125 253.605469 125.730469 C 279.847656 107.015625 279.847656 79.484375 253.605469 60.769531 C 254.035156 61.09375 254.464844 61.414062 254.894531 61.628906 C 284.039062 83.03125 279.199219 114.761719 244.03125 132.503906 C 208.863281 150.25 156.703125 147.238281 127.554688 125.835938 C 102.175781 107.230469 102.175781 80.238281 127.554688 61.628906 C 127.988281 61.308594 128.417969 60.984375 128.847656 60.769531 Z M 128.847656 60.769531 " fill-opacity="1" fill-rule="nonzero"/><path fill="#0dcece" d="M 164.660156 44.101562 C 129.707031 53.027344 113.144531 77.546875 127.773438 98.84375 C 142.398438 120.136719 182.730469 130.246094 217.789062 121.320312 C 252.742188 112.394531 269.304688 87.871094 254.679688 66.578125 C 247.6875 56.359375 234.460938 48.292969 217.789062 44.101562 C 218.757812 44.316406 219.726562 44.636719 220.585938 44.851562 C 255.324219 54.746094 270.382812 79.914062 254.25 101.101562 C 238.007812 122.289062 196.710938 131.429688 161.863281 121.535156 C 127.125 111.640625 112.070312 86.472656 128.203125 65.289062 C 135.085938 56.253906 147.023438 49.046875 161.863281 44.851562 C 162.832031 44.53125 163.800781 44.316406 164.660156 44.101562 Z M 164.660156 44.101562 " fill-opacity="1" fill-rule="nonzero"/><path fill="#0dcece" d="M 137.882812 74.214844 C 137.882812 56.253906 161.757812 41.734375 191.226562 41.734375 C 220.695312 41.734375 244.570312 56.253906 244.570312 74.214844 C 244.570312 92.175781 220.695312 106.695312 191.226562 106.695312 C 161.757812 106.695312 137.882812 92.175781 137.882812 74.214844 Z M 137.019531 74.644531 C 137.019531 92.820312 161.21875 107.660156 191.226562 107.660156 C 221.125 107.660156 245.429688 92.925781 245.429688 74.644531 C 245.429688 56.46875 221.230469 41.625 191.226562 41.625 C 161.328125 41.625 137.019531 56.359375 137.019531 74.644531 Z M 137.019531 74.644531 " fill-opacity="1" fill-rule="nonzero"/><path fill="#0dcece" d="M 154.875 67.976562 C 154.875 55.714844 171.113281 45.820312 191.226562 45.820312 C 211.335938 45.820312 227.578125 55.824219 227.578125 67.976562 C 227.578125 80.238281 211.335938 90.132812 191.226562 90.132812 C 171.113281 90.132812 154.875 80.238281 154.875 67.976562 Z M 154.011719 68.300781 C 154.011719 80.773438 170.683594 90.992188 191.226562 90.992188 C 211.765625 90.992188 228.4375 80.882812 228.4375 68.300781 C 228.4375 55.824219 211.765625 45.605469 191.226562 45.605469 C 170.683594 45.605469 154.011719 55.714844 154.011719 68.300781 Z M 154.011719 68.300781 " fill-opacity="1" fill-rule="nonzero"/><path fill="#0dcece" d="M 173.050781 64.210938 C 173.050781 58.082031 181.222656 53.132812 191.226562 53.132812 C 201.335938 53.132812 209.402344 58.082031 209.402344 64.210938 C 209.402344 70.34375 201.226562 75.289062 191.226562 75.289062 C 181.117188 75.289062 173.050781 70.34375 173.050781 64.210938 Z M 172.082031 64.320312 C 172.082031 70.773438 180.6875 75.933594 191.226562 75.933594 C 201.765625 75.933594 210.371094 70.773438 210.371094 64.320312 C 210.371094 57.867188 201.765625 52.703125 191.226562 52.703125 C 180.6875 52.703125 172.082031 57.867188 172.082031 64.320312 Z M 172.082031 64.320312 " fill-opacity="1" fill-rule="nonzero"/><path fill="#0dcece" d="M 90.726562 102.988281 C 87.007812 111.152344 84.394531 119.539062 82.828125 127.980469 C 85.460938 129.582031 88.339844 131.210938 91.449219 132.855469 C 93.03125 124.691406 95.59375 116.585938 99.191406 108.691406 C 123.777344 54.726562 187.457031 30.914062 241.417969 55.5 C 245.339844 57.285156 249.101562 59.28125 252.699219 61.460938 C 246.667969 56.96875 240.074219 53.042969 232.953125 49.800781 C 183.144531 27.105469 125.058594 45.648438 97.078125 91.074219 C 96.113281 92.640625 95.183594 94.238281 94.292969 95.867188 C 93.027344 98.175781 91.835938 100.550781 90.726562 102.988281 " fill-opacity="1" fill-rule="nonzero"/><g clip-path="url(#810c6f0415)"><path fill="#0dcece" d="M 132.636719 239.253906 C 103.195312 217.3125 87.273438 181.808594 89.753906 145.808594 C 86.796875 144.574219 83.9375 143.335938 81.171875 142.101562 C 79.238281 180.726562 98.40625 218.492188 132.636719 239.253906 " fill-opacity="1" fill-rule="nonzero"/></g><path fill="#0dcece" d="M 282.59375 136.464844 C 282.601562 136.804688 282.605469 137.144531 282.605469 137.480469 C 319.015625 153.148438 337.316406 168.730469 325.875 177.296875 C 318.074219 183.144531 297.847656 184.667969 271.066406 182.445312 C 241.472656 179.984375 203.882812 172.941406 166.214844 162.074219 C 142.488281 155.226562 121.703125 147.714844 105.097656 140.289062 C 103.671875 139.648438 102.273438 139.011719 100.910156 138.375 C 99.933594 137.917969 98.972656 137.464844 98.03125 137.011719 C 95.429688 135.757812 92.957031 134.511719 90.613281 133.273438 C 87.5 131.628906 84.621094 130 81.988281 128.398438 C 64.644531 117.839844 57.964844 108.339844 66.011719 102.308594 C 70.847656 98.6875 80.464844 96.722656 93.453125 96.285156 C 94.347656 94.65625 95.273438 93.058594 96.238281 91.492188 C 65.894531 89.152344 43.042969 91.027344 34.09375 97.730469 C 21.140625 107.433594 40.621094 124.792969 80.332031 142.519531 C 83.097656 143.753906 85.957031 144.992188 88.914062 146.226562 C 92.773438 147.839844 96.796875 149.453125 100.96875 151.054688 C 101.269531 151.175781 101.574219 151.289062 101.878906 151.40625 C 103.910156 152.183594 105.980469 152.957031 108.078125 153.730469 C 121.417969 158.640625 136.128906 163.460938 151.960938 168.027344 C 192.238281 179.652344 232.441406 187.554688 265.570312 191.066406 C 301.867188 194.917969 329.667969 193.503906 339.765625 185.9375 C 353.863281 175.382812 329.5625 155.765625 282.59375 136.464844 " fill-opacity="1" fill-rule="nonzero"/><g fill="#0dcece" fill-opacity="1"><g transform="translate(108.217597, 191.638781)"><g><path d="M 36.375 -61.59375 L 32.875 -44.25 L 67.671875 -44.25 L 64.171875 -27.015625 L 29.5 -27.015625 L 24.09375 0 L 1.796875 0 L 17.5625 -78.8125 L 79.265625 -78.8125 L 75.78125 -61.59375 Z M 36.375 -61.59375 "/></g></g></g><g fill="#0dcece" fill-opacity="1"><g transform="translate(180.497308, 191.638781)"><g><path d="M 97.390625 -78.8125 L 47.96875 0 L 26.015625 0 L 8.109375 -78.8125 L 30.96875 -78.8125 L 42.21875 -27.578125 L 74.421875 -78.8125 Z M 97.390625 -78.8125 "/></g></g></g><g fill="#0dcece" fill-opacity="1"><g transform="translate(38.069191, 311.373023)"><g><path d="M 12.96875 -23.109375 L 12.96875 -17.796875 L 25.90625 -17.796875 L 25.90625 -9.921875 L 12.96875 -9.921875 L 12.96875 0 L 2.53125 0 L 2.53125 -31 L 27.71875 -31 L 27.71875 -23.109375 Z M 12.96875 -23.109375 "/></g></g></g><g fill="#0dcece" fill-opacity="1"><g transform="translate(66.588296, 311.373023)"><g><path d="M 2.53125 -31 L 12.96875 -31 L 12.96875 0 L 2.53125 0 Z M 2.53125 -31 "/></g></g></g><g fill="#0dcece" fill-opacity="1"><g transform="translate(82.087804, 311.373023)"><g><path d="M 33.078125 -31 L 33.078125 0 L 24.484375 0 L 12.703125 -14.078125 L 12.703125 0 L 2.53125 0 L 2.53125 -31 L 11.109375 -31 L 22.890625 -16.921875 L 22.890625 -31 Z M 33.078125 -31 "/></g></g></g><g fill="#0dcece" fill-opacity="1"><g transform="translate(117.692391, 311.373023)"><g><path d="M 2.53125 -31 L 17.796875 -31 C 21.253906 -31 24.300781 -30.367188 26.9375 -29.109375 C 29.582031 -27.859375 31.632812 -26.066406 33.09375 -23.734375 C 34.5625 -21.398438 35.296875 -18.65625 35.296875 -15.5 C 35.296875 -12.34375 34.5625 -9.597656 33.09375 -7.265625 C 31.632812 -4.929688 29.582031 -3.132812 26.9375 -1.875 C 24.300781 -0.625 21.253906 0 17.796875 0 L 2.53125 0 Z M 17.359375 -8.140625 C 19.597656 -8.140625 21.390625 -8.78125 22.734375 -10.0625 C 24.078125 -11.351562 24.75 -13.164062 24.75 -15.5 C 24.75 -17.832031 24.078125 -19.640625 22.734375 -20.921875 C 21.390625 -22.203125 19.597656 -22.84375 17.359375 -22.84375 L 12.96875 -22.84375 L 12.96875 -8.140625 Z M 17.359375 -8.140625 "/></g></g></g><g fill="#0dcece" fill-opacity="1"><g transform="translate(154.271237, 311.373023)"><g/></g></g><g fill="#0dcece" fill-opacity="1"><g transform="translate(167.55654, 311.373023)"><g><path d="M 35.640625 -31 L 22.546875 0 L 12.265625 0 L -0.84375 -31 L 10.40625 -31 L 17.796875 -12.890625 L 25.375 -31 Z M 35.640625 -31 "/></g></g></g><g fill="#0dcece" fill-opacity="1"><g transform="translate(202.36401, 311.373023)"><g><path d="M 23.640625 -5.40625 L 11.875 -5.40625 L 9.78125 0 L -0.84375 0 L 12.703125 -31 L 22.984375 -31 L 36.53125 0 L 25.734375 0 Z M 20.765625 -12.9375 L 17.75 -20.71875 L 14.75 -12.9375 Z M 20.765625 -12.9375 "/></g></g></g><g fill="#0dcece" fill-opacity="1"><g transform="translate(238.057178, 311.373023)"><g><path d="M 23.03125 -16.34375 L 32.109375 -16.34375 L 32.109375 -3.234375 C 30.273438 -1.960938 28.144531 -0.988281 25.71875 -0.3125 C 23.300781 0.363281 20.925781 0.703125 18.59375 0.703125 C 15.289062 0.703125 12.320312 0.0195312 9.6875 -1.34375 C 7.0625 -2.71875 5.003906 -4.632812 3.515625 -7.09375 C 2.023438 -9.5625 1.28125 -12.363281 1.28125 -15.5 C 1.28125 -18.625 2.023438 -21.421875 3.515625 -23.890625 C 5.003906 -26.359375 7.082031 -28.273438 9.75 -29.640625 C 12.425781 -31.015625 15.445312 -31.703125 18.8125 -31.703125 C 21.851562 -31.703125 24.578125 -31.191406 26.984375 -30.171875 C 29.390625 -29.160156 31.390625 -27.679688 32.984375 -25.734375 L 26.296875 -19.84375 C 24.347656 -22.113281 22.03125 -23.25 19.34375 -23.25 C 17.039062 -23.25 15.210938 -22.550781 13.859375 -21.15625 C 12.503906 -19.769531 11.828125 -17.882812 11.828125 -15.5 C 11.828125 -13.164062 12.5 -11.289062 13.84375 -9.875 C 15.1875 -8.457031 16.976562 -7.75 19.21875 -7.75 C 20.539062 -7.75 21.8125 -8 23.03125 -8.5 Z M 23.03125 -16.34375 "/></g></g></g><g fill="#0dcece" fill-opacity="1"><g transform="translate(272.111823, 311.373023)"><g><path d="M 23.640625 -5.40625 L 11.875 -5.40625 L 9.78125 0 L -0.84375 0 L 12.703125 -31 L 22.984375 -31 L 36.53125 0 L 25.734375 0 Z M 20.765625 -12.9375 L 17.75 -20.71875 L 14.75 -12.9375 Z M 20.765625 -12.9375 "/></g></g></g><g fill="#0dcece" fill-opacity="1"><g transform="translate(307.80499, 311.373023)"><g><path d="M 14.078125 0.703125 C 11.515625 0.703125 9.015625 0.414062 6.578125 -0.15625 C 4.140625 -0.726562 2.140625 -1.503906 0.578125 -2.484375 L 3.9375 -10.09375 C 5.414062 -9.238281 7.066406 -8.550781 8.890625 -8.03125 C 10.722656 -7.519531 12.484375 -7.265625 14.171875 -7.265625 C 15.617188 -7.265625 16.648438 -7.40625 17.265625 -7.6875 C 17.890625 -7.96875 18.203125 -8.382812 18.203125 -8.9375 C 18.203125 -9.59375 17.796875 -10.082031 16.984375 -10.40625 C 16.171875 -10.726562 14.832031 -11.082031 12.96875 -11.46875 C 10.582031 -11.96875 8.59375 -12.503906 7 -13.078125 C 5.40625 -13.660156 4.015625 -14.609375 2.828125 -15.921875 C 1.648438 -17.234375 1.0625 -19.007812 1.0625 -21.25 C 1.0625 -23.195312 1.609375 -24.96875 2.703125 -26.5625 C 3.796875 -28.15625 5.425781 -29.410156 7.59375 -30.328125 C 9.757812 -31.242188 12.394531 -31.703125 15.5 -31.703125 C 17.625 -31.703125 19.710938 -31.472656 21.765625 -31.015625 C 23.816406 -30.554688 25.625 -29.882812 27.1875 -29 L 24.046875 -21.4375 C 21.003906 -22.96875 18.125 -23.734375 15.40625 -23.734375 C 12.71875 -23.734375 11.375 -23.082031 11.375 -21.78125 C 11.375 -21.164062 11.769531 -20.703125 12.5625 -20.390625 C 13.363281 -20.078125 14.679688 -19.742188 16.515625 -19.390625 C 18.878906 -18.953125 20.875 -18.441406 22.5 -17.859375 C 24.125 -17.285156 25.53125 -16.347656 26.71875 -15.046875 C 27.914062 -13.753906 28.515625 -11.984375 28.515625 -9.734375 C 28.515625 -7.785156 27.96875 -6.019531 26.875 -4.4375 C 25.78125 -2.863281 24.148438 -1.613281 21.984375 -0.6875 C 19.816406 0.238281 17.179688 0.703125 14.078125 0.703125 Z M 14.078125 0.703125 "/></g></g></g></svg>