<svg xmlns="http://www.w3.org/2000/svg" xmlns:xlink="http://www.w3.org/1999/xlink" width="500" zoomAndPan="magnify" viewBox="0 0 375 74.999997" height="100" preserveAspectRatio="xMidYMid meet" version="1.0"><defs><g/><clipPath id="c2627c9b4c"><path d="M 58 1.769531 L 71 1.769531 L 71 50 L 58 50 Z M 58 1.769531 " clip-rule="nonzero"/></clipPath></defs><path fill="#000000" d="M 39.804688 49.453125 L 27.914062 49.453125 L 27.914062 27.582031 L 39.804688 18.980469 Z M 39.804688 49.453125 " fill-opacity="1" fill-rule="nonzero"/><path fill="#000000" d="M 54.667969 49.453125 L 42.777344 49.453125 L 42.777344 19.621094 L 54.667969 11.023438 Z M 54.667969 49.453125 " fill-opacity="1" fill-rule="nonzero"/><g clip-path="url(#c2627c9b4c)"><path fill="#000000" d="M 63.832031 49.453125 L 58.238281 49.453125 L 58.238281 10.382812 L 70.128906 1.785156 L 70.128906 43.15625 C 70.128906 43.570312 70.089844 43.976562 70.007812 44.382812 C 69.929688 44.789062 69.808594 45.183594 69.652344 45.566406 C 69.492188 45.949219 69.296875 46.3125 69.070312 46.65625 C 68.839844 47 68.578125 47.316406 68.285156 47.609375 C 67.992188 47.902344 67.675781 48.164062 67.332031 48.394531 C 66.988281 48.621094 66.625 48.816406 66.242188 48.976562 C 65.859375 49.132812 65.464844 49.253906 65.058594 49.332031 C 64.652344 49.414062 64.246094 49.453125 63.832031 49.453125 Z M 63.832031 49.453125 " fill-opacity="1" fill-rule="nonzero"/></g><path fill="#000000" d="M 86.222656 32.703125 C 92.042969 38.832031 96.460938 46.636719 94.6875 52.914062 C 91.097656 65.667969 70.457031 71.015625 48.589844 64.855469 C 26.726562 58.699219 11.910156 43.367188 15.5 30.613281 C 17.253906 24.390625 23.078125 19.933594 31.117188 17.710938 L 31.117188 20.089844 L 37.171875 17.003906 L 31.117188 13.609375 L 31.117188 16.914062 C 20.90625 18.933594 13.429688 23.945312 11.347656 31.300781 C 7.503906 44.960938 23.777344 61.492188 47.699219 68.230469 C 71.625 74.964844 94.957031 69.5625 97.980469 55.699219 C 100.5 44.148438 86.222656 32.703125 86.222656 32.703125 Z M 86.222656 32.703125 " fill-opacity="1" fill-rule="nonzero"/><path fill="#000000" d="M 73.820312 25.625 L 73.820312 42.589844 C 73.820312 43.195312 73.761719 43.796875 73.644531 44.394531 C 73.523438 44.992188 73.347656 45.570312 73.117188 46.132812 C 72.882812 46.695312 72.597656 47.230469 72.261719 47.734375 C 71.921875 48.238281 71.539062 48.707031 71.109375 49.136719 C 70.679688 49.566406 70.210938 49.953125 69.703125 50.289062 C 69.199219 50.628906 68.664062 50.914062 68.101562 51.144531 C 67.542969 51.378906 66.960938 51.554688 66.367188 51.671875 C 65.769531 51.792969 65.167969 51.851562 64.558594 51.851562 L 27.855469 51.851562 C 28.367188 51.851562 29.652344 53.101562 30.109375 53.402344 C 31.035156 54.007812 31.972656 54.59375 32.929688 55.152344 C 34.914062 56.316406 36.953125 57.382812 39.042969 58.355469 C 50.757812 63.808594 64.441406 66.722656 77.167969 63.242188 C 77.769531 63.078125 78.359375 62.863281 78.925781 62.605469 C 79.496094 62.34375 80.039062 62.039062 80.558594 61.6875 C 81.078125 61.339844 81.566406 60.949219 82.019531 60.519531 C 82.476562 60.089844 82.894531 59.628906 83.273438 59.128906 C 83.65625 58.632812 83.992188 58.109375 84.285156 57.554688 C 84.582031 57.003906 84.828125 56.429688 85.027344 55.835938 C 85.230469 55.242188 85.382812 54.640625 85.484375 54.019531 C 85.585938 53.402344 85.636719 52.78125 85.636719 52.15625 L 85.636719 32.070312 Z M 73.820312 25.625 " fill-opacity="1" fill-rule="nonzero"/><g fill="#000000" fill-opacity="1"><g transform="translate(100.489607, 30.885339)"><g><path d="M 20.609375 0 L 18.234375 -15.40625 L 14.890625 -15.40625 L 10.71875 -5.9375 L 6.53125 -15.40625 L 3.21875 -15.40625 L 0.796875 0 L 4.1875 0 L 5.703125 -10.03125 L 10.296875 -0.015625 L 11.109375 -0.015625 L 15.703125 -10.03125 L 17.21875 0 Z M 20.609375 0 "/></g></g></g><g fill="#000000" fill-opacity="1"><g transform="translate(123.035801, 30.885339)"><g><path d="M 11.21875 -11.875 L 10.890625 -10.765625 C 9.859375 -11.65625 8.515625 -12.203125 6.96875 -12.203125 C 3.40625 -12.203125 0.75 -9.53125 0.75 -5.9375 C 0.75 -2.359375 3.40625 0.359375 6.96875 0.359375 C 8.484375 0.359375 9.8125 -0.171875 10.828125 -1.078125 L 11.109375 0 L 13.625 0 L 13.625 -11.875 Z M 7.234375 -2.6875 C 5.375 -2.6875 4 -4.09375 4 -5.9375 C 4 -7.8125 5.375 -9.203125 7.234375 -9.203125 C 9.109375 -9.203125 10.46875 -7.8125 10.46875 -5.9375 C 10.46875 -4.0625 9.109375 -2.6875 7.234375 -2.6875 Z M 7.234375 -2.6875 "/></g></g></g><g fill="#000000" fill-opacity="1"><g transform="translate(139.313105, 30.885339)"><g><path d="M 7.609375 -11.953125 C 6.078125 -11.953125 5.015625 -11.46875 4.15625 -10.40625 L 3.59375 -11.875 L 1.546875 -11.875 L 1.546875 0 L 4.75 0 L 4.75 -6.15625 C 4.75 -8.09375 5.453125 -8.90625 7.265625 -8.90625 L 8.671875 -8.90625 L 8.671875 -11.953125 Z M 7.609375 -11.953125 "/></g></g></g><g fill="#000000" fill-opacity="1"><g transform="translate(149.365523, 30.885339)"><g><path d="M 12.4375 0 L 7.984375 -6.203125 L 12.015625 -11.875 L 8.3125 -11.875 L 4.75 -6.59375 L 4.75 -16.140625 L 1.546875 -16.140625 L 1.546875 0 L 4.75 0 L 4.75 -5.671875 L 8.53125 0 Z M 12.4375 0 "/></g></g></g><g fill="#000000" fill-opacity="1"><g transform="translate(162.805331, 30.885339)"><g><path d="M 13.0625 -5.96875 C 13.0625 -9.390625 10.5625 -12.203125 6.90625 -12.203125 C 3.390625 -12.203125 0.75 -9.5 0.75 -5.9375 C 0.75 -2.375 3.40625 0.359375 6.90625 0.359375 C 9.6875 0.359375 11.953125 -1.296875 12.796875 -3.890625 L 9.4375 -3.890625 C 8.953125 -3.03125 8.03125 -2.515625 6.90625 -2.515625 C 5.34375 -2.515625 4.296875 -3.40625 4 -5.03125 L 13 -5.03125 C 13.046875 -5.34375 13.0625 -5.65625 13.0625 -5.96875 Z M 6.90625 -9.453125 C 8.359375 -9.453125 9.390625 -8.671875 9.859375 -7.21875 L 4.09375 -7.21875 C 4.46875 -8.625 5.484375 -9.453125 6.90625 -9.453125 Z M 6.90625 -9.453125 "/></g></g></g><g fill="#000000" fill-opacity="1"><g transform="translate(177.718875, 30.885339)"><g><path d="M 7.34375 -2.859375 C 6.15625 -2.859375 5.5 -3.515625 5.5 -4.65625 L 5.5 -9.28125 L 8.734375 -9.28125 L 8.734375 -11.875 L 5.453125 -11.875 L 5.453125 -14.953125 L 4.84375 -14.953125 L 0.15625 -9.984375 L 0.15625 -9.28125 L 2.28125 -9.28125 L 2.28125 -4.21875 C 2.28125 -1.609375 3.890625 0 6.515625 0 L 8.796875 0 L 8.796875 -2.859375 Z M 7.34375 -2.859375 "/></g></g></g><g fill="#000000" fill-opacity="1"><g transform="translate(188.277199, 30.885339)"><g><path d="M 1.546875 -13.46875 L 4.734375 -13.46875 L 4.734375 -16.4375 L 1.546875 -16.4375 Z M 1.546875 0 L 4.75 0 L 4.75 -11.875 L 1.546875 -11.875 Z M 1.546875 0 "/></g></g></g><g fill="#000000" fill-opacity="1"><g transform="translate(195.668085, 30.885339)"><g><path d="M 8.296875 -12.140625 C 6.6875 -12.140625 5.265625 -11.46875 4.359375 -10.40625 L 3.734375 -11.875 L 1.546875 -11.875 L 1.546875 0 L 4.75 0 L 4.75 -6.21875 C 4.75 -8.140625 5.765625 -9.328125 7.40625 -9.328125 C 8.796875 -9.328125 9.484375 -8.46875 9.484375 -6.671875 L 9.484375 0 L 12.6875 0 L 12.6875 -7.1875 C 12.6875 -10.203125 11 -12.140625 8.296875 -12.140625 Z M 8.296875 -12.140625 "/></g></g></g><g fill="#000000" fill-opacity="1"><g transform="translate(210.867588, 30.885339)"><g><path d="M 11.125 -11.875 L 10.609375 -10.6875 C 9.5625 -11.640625 8.203125 -12.203125 6.671875 -12.203125 C 3.34375 -12.203125 0.75 -9.5625 0.75 -6.25 C 0.75 -2.90625 3.34375 -0.28125 6.671875 -0.28125 C 7.9375 -0.28125 9.109375 -0.6875 10.046875 -1.34375 L 10.046875 -0.90625 C 10.046875 0.84375 8.71875 1.890625 7.078125 1.890625 C 5.890625 1.890625 4.640625 1.34375 4.265625 0.265625 L 1.078125 0.265625 C 1.625 2.96875 3.921875 4.625 7.125 4.625 C 10.890625 4.625 13.203125 2.359375 13.203125 -1.359375 L 13.203125 -11.859375 Z M 7.046875 -3.171875 C 5.28125 -3.171875 4 -4.46875 4 -6.21875 C 4 -8.015625 5.28125 -9.3125 7.046875 -9.3125 C 8.796875 -9.3125 10.078125 -8.015625 10.078125 -6.21875 C 10.078125 -4.46875 8.796875 -3.171875 7.046875 -3.171875 Z M 7.046875 -3.171875 "/></g></g></g><g fill="#000000" fill-opacity="1"><g transform="translate(226.72697, 30.885339)"><g/></g></g><g fill="#000000" fill-opacity="1"><g transform="translate(233.084048, 30.885339)"><g><path d="M 1.765625 0 L 5.078125 0 L 5.078125 -15.40625 L 1.765625 -15.40625 Z M 1.765625 0 "/></g></g></g><g fill="#000000" fill-opacity="1"><g transform="translate(241.046846, 30.885339)"><g><path d="M 8.296875 -12.140625 C 6.6875 -12.140625 5.265625 -11.46875 4.359375 -10.40625 L 3.734375 -11.875 L 1.546875 -11.875 L 1.546875 0 L 4.75 0 L 4.75 -6.21875 C 4.75 -8.140625 5.765625 -9.328125 7.40625 -9.328125 C 8.796875 -9.328125 9.484375 -8.46875 9.484375 -6.671875 L 9.484375 0 L 12.6875 0 L 12.6875 -7.1875 C 12.6875 -10.203125 11 -12.140625 8.296875 -12.140625 Z M 8.296875 -12.140625 "/></g></g></g><g fill="#000000" fill-opacity="1"><g transform="translate(256.24635, 30.885339)"><g><path d="M 8.296875 -12.140625 C 6.6875 -12.140625 5.265625 -11.46875 4.359375 -10.40625 L 3.734375 -11.875 L 1.546875 -11.875 L 1.546875 0 L 4.75 0 L 4.75 -6.21875 C 4.75 -8.140625 5.765625 -9.328125 7.40625 -9.328125 C 8.796875 -9.328125 9.484375 -8.46875 9.484375 -6.671875 L 9.484375 0 L 12.6875 0 L 12.6875 -7.1875 C 12.6875 -10.203125 11 -12.140625 8.296875 -12.140625 Z M 8.296875 -12.140625 "/></g></g></g><g fill="#000000" fill-opacity="1"><g transform="translate(271.445853, 30.885339)"><g><path d="M 7.171875 0.359375 C 10.84375 0.359375 13.59375 -2.359375 13.59375 -5.9375 C 13.59375 -9.53125 10.84375 -12.203125 7.171875 -12.203125 C 3.5 -12.203125 0.75 -9.53125 0.75 -5.9375 C 0.75 -2.359375 3.5 0.359375 7.171875 0.359375 Z M 7.171875 -2.6875 C 5.328125 -2.6875 4 -4 4 -5.9375 C 4 -7.859375 5.328125 -9.203125 7.171875 -9.203125 C 9.015625 -9.203125 10.34375 -7.859375 10.34375 -5.9375 C 10.34375 -4 9.015625 -2.6875 7.171875 -2.6875 Z M 7.171875 -2.6875 "/></g></g></g><g fill="#000000" fill-opacity="1"><g transform="translate(286.909314, 30.885339)"><g><path d="M 9.328125 -11.875 L 6.46875 -3.921875 L 3.5625 -11.875 L 0.125 -11.875 L 4.96875 0 L 7.9375 0 L 12.65625 -11.875 Z M 9.328125 -11.875 "/></g></g></g><g fill="#000000" fill-opacity="1"><g transform="translate(300.855037, 30.885339)"><g><path d="M 11.21875 -11.875 L 10.890625 -10.765625 C 9.859375 -11.65625 8.515625 -12.203125 6.96875 -12.203125 C 3.40625 -12.203125 0.75 -9.53125 0.75 -5.9375 C 0.75 -2.359375 3.40625 0.359375 6.96875 0.359375 C 8.484375 0.359375 9.8125 -0.171875 10.828125 -1.078125 L 11.109375 0 L 13.625 0 L 13.625 -11.875 Z M 7.234375 -2.6875 C 5.375 -2.6875 4 -4.09375 4 -5.9375 C 4 -7.8125 5.375 -9.203125 7.234375 -9.203125 C 9.109375 -9.203125 10.46875 -7.8125 10.46875 -5.9375 C 10.46875 -4.0625 9.109375 -2.6875 7.234375 -2.6875 Z M 7.234375 -2.6875 "/></g></g></g><g fill="#000000" fill-opacity="1"><g transform="translate(317.132334, 30.885339)"><g><path d="M 7.34375 -2.859375 C 6.15625 -2.859375 5.5 -3.515625 5.5 -4.65625 L 5.5 -9.28125 L 8.734375 -9.28125 L 8.734375 -11.875 L 5.453125 -11.875 L 5.453125 -14.953125 L 4.84375 -14.953125 L 0.15625 -9.984375 L 0.15625 -9.28125 L 2.28125 -9.28125 L 2.28125 -4.21875 C 2.28125 -1.609375 3.890625 0 6.515625 0 L 8.796875 0 L 8.796875 -2.859375 Z M 7.34375 -2.859375 "/></g></g></g><g fill="#000000" fill-opacity="1"><g transform="translate(327.690652, 30.885339)"><g><path d="M 1.546875 -13.46875 L 4.734375 -13.46875 L 4.734375 -16.4375 L 1.546875 -16.4375 Z M 1.546875 0 L 4.75 0 L 4.75 -11.875 L 1.546875 -11.875 Z M 1.546875 0 "/></g></g></g><g fill="#000000" fill-opacity="1"><g transform="translate(335.081544, 30.885339)"><g><path d="M 7.171875 0.359375 C 10.84375 0.359375 13.59375 -2.359375 13.59375 -5.9375 C 13.59375 -9.53125 10.84375 -12.203125 7.171875 -12.203125 C 3.5 -12.203125 0.75 -9.53125 0.75 -5.9375 C 0.75 -2.359375 3.5 0.359375 7.171875 0.359375 Z M 7.171875 -2.6875 C 5.328125 -2.6875 4 -4 4 -5.9375 C 4 -7.859375 5.328125 -9.203125 7.171875 -9.203125 C 9.015625 -9.203125 10.34375 -7.859375 10.34375 -5.9375 C 10.34375 -4 9.015625 -2.6875 7.171875 -2.6875 Z M 7.171875 -2.6875 "/></g></g></g><g fill="#000000" fill-opacity="1"><g transform="translate(350.545005, 30.885339)"><g><path d="M 8.296875 -12.140625 C 6.6875 -12.140625 5.265625 -11.46875 4.359375 -10.40625 L 3.734375 -11.875 L 1.546875 -11.875 L 1.546875 0 L 4.75 0 L 4.75 -6.21875 C 4.75 -8.140625 5.765625 -9.328125 7.40625 -9.328125 C 8.796875 -9.328125 9.484375 -8.46875 9.484375 -6.671875 L 9.484375 0 L 12.6875 0 L 12.6875 -7.1875 C 12.6875 -10.203125 11 -12.140625 8.296875 -12.140625 Z M 8.296875 -12.140625 "/></g></g></g><g fill="#000000" fill-opacity="1"><g transform="translate(100.489607, 55.635337)"><g><path d="M 8.828125 0.359375 C 12.625 0.359375 15.625 -2.203125 16.328125 -6 L 12.953125 -6 C 12.40625 -4.0625 10.84375 -2.84375 8.828125 -2.84375 C 6.203125 -2.84375 4.25 -4.90625 4.25 -7.671875 C 4.25 -10.453125 6.203125 -12.546875 8.828125 -12.546875 C 10.765625 -12.546875 12.296875 -11.390625 12.9375 -9.59375 L 16.265625 -9.59375 C 15.546875 -13.25 12.5625 -15.734375 8.828125 -15.734375 C 4.296875 -15.734375 0.859375 -12.25 0.859375 -7.671875 C 0.859375 -3.125 4.296875 0.359375 8.828125 0.359375 Z M 8.828125 0.359375 "/></g></g></g><g fill="#000000" fill-opacity="1"><g transform="translate(118.548596, 55.635337)"><g><path d="M 7.171875 0.359375 C 10.84375 0.359375 13.59375 -2.359375 13.59375 -5.9375 C 13.59375 -9.53125 10.84375 -12.203125 7.171875 -12.203125 C 3.5 -12.203125 0.75 -9.53125 0.75 -5.9375 C 0.75 -2.359375 3.5 0.359375 7.171875 0.359375 Z M 7.171875 -2.6875 C 5.328125 -2.6875 4 -4 4 -5.9375 C 4 -7.859375 5.328125 -9.203125 7.171875 -9.203125 C 9.015625 -9.203125 10.34375 -7.859375 10.34375 -5.9375 C 10.34375 -4 9.015625 -2.6875 7.171875 -2.6875 Z M 7.171875 -2.6875 "/></g></g></g><g fill="#000000" fill-opacity="1"><g transform="translate(134.012053, 55.635337)"><g><path d="M 8.296875 -12.140625 C 6.6875 -12.140625 5.265625 -11.46875 4.359375 -10.40625 L 3.734375 -11.875 L 1.546875 -11.875 L 1.546875 0 L 4.75 0 L 4.75 -6.21875 C 4.75 -8.140625 5.765625 -9.328125 7.40625 -9.328125 C 8.796875 -9.328125 9.484375 -8.46875 9.484375 -6.671875 L 9.484375 0 L 12.6875 0 L 12.6875 -7.1875 C 12.6875 -10.203125 11 -12.140625 8.296875 -12.140625 Z M 8.296875 -12.140625 "/></g></g></g><g fill="#000000" fill-opacity="1"><g transform="translate(149.211554, 55.635337)"><g><path d="M 8.796875 -11.703125 L 5.734375 -11.703125 L 5.734375 -12.71875 C 5.734375 -13.546875 6.1875 -13.984375 7.046875 -13.984375 L 8.78125 -13.984375 L 8.78125 -16.515625 L 6.40625 -16.515625 C 3.890625 -16.515625 2.625 -15.0625 2.625 -12.78125 L 2.625 -11.703125 L 0.546875 -11.703125 L 0.546875 -9.0625 L 2.59375 -9.0625 L 2.59375 0 L 5.8125 0 L 5.8125 -9.0625 L 8.796875 -9.0625 Z M 8.796875 -11.703125 "/></g></g></g><g fill="#000000" fill-opacity="1"><g transform="translate(159.439933, 55.635337)"><g><path d="M 13.0625 -5.96875 C 13.0625 -9.390625 10.5625 -12.203125 6.90625 -12.203125 C 3.390625 -12.203125 0.75 -9.5 0.75 -5.9375 C 0.75 -2.375 3.40625 0.359375 6.90625 0.359375 C 9.6875 0.359375 11.953125 -1.296875 12.796875 -3.890625 L 9.4375 -3.890625 C 8.953125 -3.03125 8.03125 -2.515625 6.90625 -2.515625 C 5.34375 -2.515625 4.296875 -3.40625 4 -5.03125 L 13 -5.03125 C 13.046875 -5.34375 13.0625 -5.65625 13.0625 -5.96875 Z M 6.90625 -9.453125 C 8.359375 -9.453125 9.390625 -8.671875 9.859375 -7.21875 L 4.09375 -7.21875 C 4.46875 -8.625 5.484375 -9.453125 6.90625 -9.453125 Z M 6.90625 -9.453125 "/></g></g></g><g fill="#000000" fill-opacity="1"><g transform="translate(174.353477, 55.635337)"><g><path d="M 7.609375 -11.953125 C 6.078125 -11.953125 5.015625 -11.46875 4.15625 -10.40625 L 3.59375 -11.875 L 1.546875 -11.875 L 1.546875 0 L 4.75 0 L 4.75 -6.15625 C 4.75 -8.09375 5.453125 -8.90625 7.265625 -8.90625 L 8.671875 -8.90625 L 8.671875 -11.953125 Z M 7.609375 -11.953125 "/></g></g></g><g fill="#000000" fill-opacity="1"><g transform="translate(184.405892, 55.635337)"><g><path d="M 13.0625 -5.96875 C 13.0625 -9.390625 10.5625 -12.203125 6.90625 -12.203125 C 3.390625 -12.203125 0.75 -9.5 0.75 -5.9375 C 0.75 -2.375 3.40625 0.359375 6.90625 0.359375 C 9.6875 0.359375 11.953125 -1.296875 12.796875 -3.890625 L 9.4375 -3.890625 C 8.953125 -3.03125 8.03125 -2.515625 6.90625 -2.515625 C 5.34375 -2.515625 4.296875 -3.40625 4 -5.03125 L 13 -5.03125 C 13.046875 -5.34375 13.0625 -5.65625 13.0625 -5.96875 Z M 6.90625 -9.453125 C 8.359375 -9.453125 9.390625 -8.671875 9.859375 -7.21875 L 4.09375 -7.21875 C 4.46875 -8.625 5.484375 -9.453125 6.90625 -9.453125 Z M 6.90625 -9.453125 "/></g></g></g><g fill="#000000" fill-opacity="1"><g transform="translate(199.319437, 55.635337)"><g><path d="M 8.296875 -12.140625 C 6.6875 -12.140625 5.265625 -11.46875 4.359375 -10.40625 L 3.734375 -11.875 L 1.546875 -11.875 L 1.546875 0 L 4.75 0 L 4.75 -6.21875 C 4.75 -8.140625 5.765625 -9.328125 7.40625 -9.328125 C 8.796875 -9.328125 9.484375 -8.46875 9.484375 -6.671875 L 9.484375 0 L 12.6875 0 L 12.6875 -7.1875 C 12.6875 -10.203125 11 -12.140625 8.296875 -12.140625 Z M 8.296875 -12.140625 "/></g></g></g><g fill="#000000" fill-opacity="1"><g transform="translate(214.51894, 55.635337)"><g><path d="M 7.0625 0.359375 C 10.15625 0.359375 12.609375 -1.671875 13.15625 -4.65625 L 9.921875 -4.65625 C 9.375 -3.390625 8.359375 -2.6875 7.0625 -2.6875 C 5.34375 -2.6875 4 -4.109375 4 -5.9375 C 4 -7.78125 5.328125 -9.203125 7.0625 -9.203125 C 8.34375 -9.203125 9.421875 -8.484375 9.921875 -7.328125 L 13.109375 -7.328125 C 12.546875 -10.25 10.15625 -12.203125 7.078125 -12.203125 C 3.46875 -12.203125 0.75 -9.53125 0.75 -5.96875 C 0.75 -2.390625 3.46875 0.359375 7.0625 0.359375 Z M 7.0625 0.359375 "/></g></g></g><g fill="#000000" fill-opacity="1"><g transform="translate(229.366503, 55.635337)"><g><path d="M 13.0625 -5.96875 C 13.0625 -9.390625 10.5625 -12.203125 6.90625 -12.203125 C 3.390625 -12.203125 0.75 -9.5 0.75 -5.9375 C 0.75 -2.375 3.40625 0.359375 6.90625 0.359375 C 9.6875 0.359375 11.953125 -1.296875 12.796875 -3.890625 L 9.4375 -3.890625 C 8.953125 -3.03125 8.03125 -2.515625 6.90625 -2.515625 C 5.34375 -2.515625 4.296875 -3.40625 4 -5.03125 L 13 -5.03125 C 13.046875 -5.34375 13.0625 -5.65625 13.0625 -5.96875 Z M 6.90625 -9.453125 C 8.359375 -9.453125 9.390625 -8.671875 9.859375 -7.21875 L 4.09375 -7.21875 C 4.46875 -8.625 5.484375 -9.453125 6.90625 -9.453125 Z M 6.90625 -9.453125 "/></g></g></g><g fill="#000000" fill-opacity="1"><g transform="translate(244.280053, 55.635337)"><g/></g></g><g fill="#000000" fill-opacity="1"><g transform="translate(250.637131, 55.635337)"><g><path d="M 6.484375 -2.953125 C 9.921875 -6.890625 10.6875 -8.53125 10.6875 -10.3125 C 10.6875 -13.03125 8.671875 -14.921875 5.78125 -14.921875 C 2.859375 -14.921875 0.984375 -12.984375 0.984375 -10.296875 L 0.984375 -9.96875 L 4.140625 -9.96875 L 4.140625 -10.25 C 4.140625 -11.28125 4.796875 -11.984375 5.859375 -11.984375 C 6.84375 -11.984375 7.53125 -11.3125 7.53125 -10.296875 C 7.53125 -8.78125 6.734375 -7.640625 0.703125 -0.6875 L 0.703125 0 L 10.953125 0 L 10.953125 -2.953125 Z M 6.484375 -2.953125 "/></g></g></g><g fill="#000000" fill-opacity="1"><g transform="translate(263.791004, 55.635337)"><g><path d="M 6.953125 0.265625 C 10.609375 0.265625 12.890625 -2.65625 12.890625 -7.328125 C 12.890625 -11.984375 10.625 -14.890625 6.953125 -14.890625 C 3.296875 -14.890625 1.03125 -11.984375 1.03125 -7.328125 C 1.03125 -2.65625 3.328125 0.265625 6.953125 0.265625 Z M 6.953125 -2.65625 C 5.171875 -2.65625 4.203125 -4.3125 4.203125 -7.328125 C 4.203125 -10.3125 5.171875 -11.96875 6.953125 -11.96875 C 8.734375 -11.96875 9.71875 -10.296875 9.71875 -7.296875 C 9.71875 -4.296875 8.75 -2.65625 6.953125 -2.65625 Z M 6.953125 -2.65625 "/></g></g></g><g fill="#000000" fill-opacity="1"><g transform="translate(278.836539, 55.635337)"><g><path d="M 6.484375 -2.953125 C 9.921875 -6.890625 10.6875 -8.53125 10.6875 -10.3125 C 10.6875 -13.03125 8.671875 -14.921875 5.78125 -14.921875 C 2.859375 -14.921875 0.984375 -12.984375 0.984375 -10.296875 L 0.984375 -9.96875 L 4.140625 -9.96875 L 4.140625 -10.25 C 4.140625 -11.28125 4.796875 -11.984375 5.859375 -11.984375 C 6.84375 -11.984375 7.53125 -11.3125 7.53125 -10.296875 C 7.53125 -8.78125 6.734375 -7.640625 0.703125 -0.6875 L 0.703125 0 L 10.953125 0 L 10.953125 -2.953125 Z M 6.484375 -2.953125 "/></g></g></g><g fill="#000000" fill-opacity="1"><g transform="translate(291.990411, 55.635337)"><g><path d="M 11.59375 -5.546875 L 10.34375 -5.546875 L 10.34375 -9.015625 L 7.96875 -9.015625 L 7.453125 -5.546875 L 4.40625 -5.546875 L 8.265625 -14.625 L 5.171875 -14.625 L 0.359375 -3.359375 L 0.359375 -2.796875 L 7.375 -2.796875 L 7.375 0 L 10.34375 0 L 10.34375 -2.796875 L 11.59375 -2.796875 Z M 11.59375 -5.546875 "/></g></g></g></svg>